<svg xmlns="http://www.w3.org/2000/svg" width="96" height="96" viewBox="0 0 24 24" fill="none" stroke="#5e4dff" stroke-width="2" stroke-linecap="round" stroke-linejoin="round" class="lucide lucide-file-archive"><path d="M4 22V4c0-.5.2-1 .6-1.4C5 2.2 5.5 2 6 2h8.5L20 7.5V22c0 .5-.2 1-.6 1.4-.4.4-.9.6-1.4.6H6c-.5 0-1-.2-1.4-.6C4.2 23 4 22.5 4 22Z"/><path d="M14 2v6h6"/><path d="M10 12.5a1 1 0 0 0-1 1v1a1 1 0 0 0 1 1"/><path d="M10 18.5a1 1 0 0 0-1 1v1a1 1 0 0 0 1 1"/><path d="M10 15.5h.01"/><path d="M14 12.5a1 1 0 0 0-1 1v1a1 1 0 0 0 1 1"/><path d="M14 18.5a1 1 0 0 0-1 1v1a1 1 0 0 0 1 1"/><path d="M14 15.5h.01"/></svg>
