<svg xmlns="http://www.w3.org/2000/svg" xmlns:v="https://svgstorm.com"
viewBox = "0 0 512 512"
width="512"
height="512">
<g fill="None" fill-opacity="0.0" stroke="#000000" stroke-opacity="0.00" stroke-width="0.3"><path d="
M 0.00 233.00 
C 0.91 230.50 1.70 225.51 2.00 223.00
C 3.62 209.63 6.59 197.40 10.00 185.00
C 11.78 178.51 13.76 172.06 16.00 166.00
C 18.66 158.79 21.68 151.72 25.00 145.00
C 28.82 137.28 32.40 129.43 37.00 122.00
C 42.45 113.20 48.79 105.03 55.00 97.00
C 68.06 80.12 84.04 64.61 101.00 52.00
C 108.12 46.70 115.44 41.58 123.00 37.00
C 130.15 32.67 137.44 28.74 145.00 25.00
C 157.90 18.62 170.97 13.86 185.00 10.00
C 200.28 5.80 217.04 1.49 233.00 0.00
L 0.00 0.00
L 0.00 233.00 Z"/>
</g>
<g fill="None" fill-opacity="0.0" stroke="#C6018B" stroke-opacity="0.99" stroke-width="0.3"><path d="
M 185.00 10.00 
C 183.70 13.66 193.55 18.83 195.75 22.25 C 197.96 25.66 204.04 30.15 207.25 33.75 C 210.45 37.36 215.62 42.17 219.25 45.75 C 222.88 49.33 226.84 53.95 230.75 57.25 C 234.66 60.54 238.01 66.09 242.25 68.75 C 246.49 71.41 249.73 79.42 254.00 81.00
C 269.24 81.00 285.56 80.60 300.00 82.00
C 307.65 82.00 315.36 81.71 323.00 82.00
C 316.84 79.28 313.13 69.88 307.25 65.75 C 301.37 61.63 296.29 54.12 290.75 49.25 C 285.22 44.38 279.47 37.94 274.25 32.75 C 269.03 27.56 262.46 21.55 257.75 16.25 C 253.04 10.95 243.38 5.04 245.00 0.00
L 233.00 0.00
C 217.04 1.49 200.28 5.80 185.00 10.00 Z"/>
</g>
<g fill="None" fill-opacity="0.0" stroke="#BC02A8" stroke-opacity="0.99" stroke-width="0.3"><path d="
M 323.00 82.00 
C 352.04 83.11 380.84 89.65 401.75 111.25 C 422.67 132.85 430.00 161.40 430.00 191.00
C 431.37 188.76 439.29 197.79 441.75 200.25 C 444.21 202.70 450.03 208.54 453.25 211.75 C 456.46 214.96 461.19 219.70 464.75 223.25 C 468.31 226.79 472.53 231.06 476.25 234.75 C 479.97 238.44 483.95 242.51 487.75 246.25 C 491.55 249.99 495.39 254.02 499.25 257.75 C 503.11 261.48 506.80 265.80 511.00 269.00
C 511.47 267.12 509.94 264.07 512.00 263.00
L 512.00 249.00
C 510.42 245.73 510.29 239.20 512.00 236.00
L 512.00 233.00
C 503.84 113.96 397.97 8.13 279.00 0.00
L 277.00 0.00
C 274.06 1.57 267.87 1.71 265.00 0.00
L 245.00 0.00
C 243.38 5.04 253.04 10.95 257.75 16.25 C 262.46 21.55 269.03 27.56 274.25 32.75 C 279.47 37.94 285.22 44.38 290.75 49.25 C 296.29 54.12 301.37 61.63 307.25 65.75 C 313.13 69.88 316.84 79.28 323.00 82.00 Z"/>
</g>
<g fill="None" fill-opacity="0.0" stroke="#BD00A2" stroke-opacity="0.53" stroke-width="0.3"><path d="
M 277.00 0.00 
L 265.00 0.00
C 267.87 1.71 274.06 1.57 277.00 0.00 Z"/>
</g>
<g fill="None" fill-opacity="0.0" stroke="#000000" stroke-opacity="0.00" stroke-width="0.3"><path d="
M 512.00 233.00 
L 512.00 0.00
L 279.00 0.00
C 397.97 8.13 503.84 113.96 512.00 233.00 Z"/>
</g>
<g fill="None" fill-opacity="0.0" stroke="#D1016C" stroke-opacity="0.99" stroke-width="0.3"><path d="
M 145.00 25.00 
C 143.54 28.25 154.50 34.83 157.25 38.75 C 159.99 42.67 167.50 48.41 171.25 52.75 C 174.99 57.09 181.12 62.21 185.25 66.75 C 189.38 71.29 195.30 76.07 199.00 81.00
C 197.12 81.47 194.07 79.94 193.00 82.00
C 198.00 82.00 203.00 82.00 208.00 82.00
C 222.52 80.59 238.75 81.00 254.00 81.00
C 249.73 79.42 246.49 71.41 242.25 68.75 C 238.01 66.09 234.66 60.54 230.75 57.25 C 226.84 53.95 222.88 49.33 219.25 45.75 C 215.62 42.17 210.45 37.36 207.25 33.75 C 204.04 30.15 197.96 25.66 195.75 22.25 C 193.55 18.83 183.70 13.66 185.00 10.00
C 170.97 13.86 157.90 18.62 145.00 25.00 Z"/>
</g>
<g fill="None" fill-opacity="0.0" stroke="#DA0251" stroke-opacity="0.99" stroke-width="0.3"><path d="
M 123.00 37.00 
C 122.57 40.69 132.40 45.28 134.25 48.75 C 136.10 52.23 143.35 56.92 145.75 60.25 C 148.15 63.58 155.24 68.91 157.25 71.75 C 159.25 74.60 169.61 81.70 167.00 84.00
C 175.47 82.76 184.26 82.00 193.00 82.00
C 194.07 79.94 197.12 81.47 199.00 81.00
C 195.30 76.07 189.38 71.29 185.25 66.75 C 181.12 62.21 174.99 57.09 171.25 52.75 C 167.50 48.41 159.99 42.67 157.25 38.75 C 154.50 34.83 143.54 28.25 145.00 25.00
C 137.44 28.74 130.15 32.67 123.00 37.00 Z"/>
</g>
<g fill="None" fill-opacity="0.0" stroke="#E1033A" stroke-opacity="0.99" stroke-width="0.3"><path d="
M 101.00 52.00 
C 100.75 56.40 111.85 61.18 113.75 65.25 C 115.65 69.32 124.73 74.37 126.75 78.25 C 128.78 82.12 140.43 88.09 138.00 92.00
C 147.12 87.97 157.10 85.45 167.00 84.00
C 169.61 81.70 159.25 74.60 157.25 71.75 C 155.24 68.91 148.15 63.58 145.75 60.25 C 143.35 56.92 136.10 52.23 134.25 48.75 C 132.40 45.28 122.57 40.69 123.00 37.00
C 115.44 41.58 108.12 46.70 101.00 52.00 Z"/>
</g>
<g fill="None" fill-opacity="0.0" stroke="#F00E15" stroke-opacity="0.99" stroke-width="0.3"><path d="
M 55.00 97.00 
C 59.35 96.75 63.69 107.27 67.75 109.25 C 71.81 111.22 76.79 120.09 80.75 122.25 C 84.72 124.40 89.82 135.16 94.00 133.00
C 102.79 115.22 119.98 99.96 138.00 92.00
C 140.43 88.09 128.78 82.12 126.75 78.25 C 124.73 74.37 115.65 69.32 113.75 65.25 C 111.85 61.18 100.75 56.40 101.00 52.00
C 84.04 64.61 68.06 80.12 55.00 97.00 Z"/>
</g>
<g fill="None" fill-opacity="0.0" stroke="#EFB0D5" stroke-opacity="1.00" stroke-width="0.3"><path d="
M 208.00 82.00 
C 238.67 82.00 269.33 82.00 300.00 82.00
C 285.56 80.60 269.24 81.00 254.00 81.00
C 238.75 81.00 222.52 80.59 208.00 82.00 Z"/>
</g>
<g fill="None" fill-opacity="0.0" stroke="#FEFEFE" stroke-opacity="1.00" stroke-width="0.3"><path d="
M 167.00 84.00 
C 157.10 85.45 147.12 87.97 138.00 92.00
C 119.98 99.96 102.79 115.22 94.00 133.00
C 88.93 143.25 85.91 154.70 84.00 166.00
C 82.00 177.81 82.66 189.79 82.00 202.00
C 81.61 209.24 81.00 216.47 81.00 224.00
C 83.48 249.62 82.00 277.59 82.00 304.00
C 82.00 318.56 81.64 333.02 84.00 347.00
C 90.94 388.03 122.49 422.86 165.00 428.00
C 178.55 429.64 192.02 430.00 206.00 430.00
C 236.67 430.00 267.33 430.00 298.00 430.00
C 304.00 430.00 310.00 430.00 316.00 430.00
C 323.87 430.00 331.22 429.62 339.00 429.00
C 350.83 428.06 364.27 424.96 375.00 420.00
C 387.64 414.15 402.83 403.03 411.00 391.00
C 417.04 382.11 422.44 370.49 425.00 360.00
C 428.03 347.56 430.00 334.16 430.00 321.00
C 430.00 315.33 430.00 309.67 430.00 304.00
C 430.00 271.00 430.00 238.00 430.00 205.00
C 430.00 200.33 430.00 195.67 430.00 191.00
C 430.00 161.40 422.67 132.85 401.75 111.25 C 380.84 89.65 352.04 83.11 323.00 82.00
C 315.36 81.71 307.65 82.00 300.00 82.00
C 269.33 82.00 238.67 82.00 208.00 82.00
C 203.00 82.00 198.00 82.00 193.00 82.00
C 184.26 82.00 175.47 82.76 167.00 84.00
M 291.00 113.00 
C 294.33 113.00 297.67 113.00 301.00 113.00
C 328.31 113.00 358.33 112.37 378.75 132.25 C 399.17 152.13 399.00 181.83 399.00 209.00
C 401.85 238.47 401.84 273.61 399.00 303.00
C 399.00 307.33 399.00 311.67 399.00 316.00
C 399.00 319.75 398.29 323.99 398.00 327.00
C 398.00 334.76 396.60 341.21 395.00 348.00
C 391.76 361.69 386.96 372.26 376.00 382.00
C 360.84 397.77 333.82 398.58 313.00 399.00
C 305.01 399.16 296.99 399.00 289.00 399.00
C 265.47 401.28 237.46 401.24 214.00 399.00
C 211.67 399.00 209.33 399.00 207.00 399.00
C 180.71 399.00 152.24 398.70 132.75 379.25 C 113.26 359.80 113.00 330.42 113.00 304.00
C 113.00 298.00 113.00 292.00 113.00 286.00
C 110.63 261.54 110.64 232.39 113.00 208.00
C 113.00 191.38 113.01 173.98 118.00 159.00
C 123.10 143.70 130.64 132.17 145.00 124.00
C 154.11 118.82 162.41 116.51 173.00 115.00
C 176.50 114.50 180.85 114.00 185.00 114.00
C 188.08 113.70 192.25 113.00 196.00 113.00
C 201.67 113.00 207.33 113.00 213.00 113.00
C 237.46 110.63 266.61 110.64 291.00 113.00 Z"/>
</g>
<g fill="None" fill-opacity="0.0" stroke="#F63B0E" stroke-opacity="0.99" stroke-width="0.3"><path d="
M 37.00 122.00 
C 41.10 125.01 45.09 129.85 48.75 133.25 C 52.42 136.65 56.82 141.66 60.25 144.75 C 63.68 147.85 68.83 153.95 71.75 156.25 C 74.68 158.55 81.59 168.47 84.00 166.00
C 85.91 154.70 88.93 143.25 94.00 133.00
C 89.82 135.16 84.72 124.40 80.75 122.25 C 76.79 120.09 71.81 111.22 67.75 109.25 C 63.69 107.27 59.35 96.75 55.00 97.00
C 48.79 105.03 42.45 113.20 37.00 122.00 Z"/>
</g>
<g fill="None" fill-opacity="0.0" stroke="#F4C4DC" stroke-opacity="1.00" stroke-width="0.3"><path d="
M 213.00 113.00 
C 214.00 113.00 215.00 113.00 216.00 113.00
C 228.67 113.00 241.33 113.00 254.00 113.00
C 266.33 113.00 278.67 113.00 291.00 113.00
C 266.61 110.64 237.46 110.63 213.00 113.00 Z"/>
</g>
<g fill="None" fill-opacity="0.0" stroke="#F18CA7" stroke-opacity="1.00" stroke-width="0.3"><path d="
M 185.00 114.00 
C 188.75 114.00 192.99 113.29 196.00 113.00
C 192.25 113.00 188.08 113.70 185.00 114.00 Z"/>
</g>
<g fill="None" fill-opacity="0.0" stroke="#DF0342" stroke-opacity="1.00" stroke-width="0.3"><path d="
M 185.00 114.00 
C 180.85 114.00 176.50 114.50 173.00 115.00
C 178.44 116.44 182.66 125.51 187.25 128.75 C 191.84 132.00 197.25 139.06 201.25 142.75 C 205.24 146.45 212.30 153.25 215.25 156.75 C 218.20 160.25 229.30 167.92 227.00 171.00
C 233.96 168.62 241.43 167.15 249.00 167.00
C 253.06 166.51 258.23 165.57 263.00 166.00
C 264.66 166.12 266.34 165.91 268.00 166.00
C 251.33 147.83 232.62 131.12 216.00 113.00
C 215.00 113.00 214.00 113.00 213.00 113.00
C 207.33 113.00 201.67 113.00 196.00 113.00
C 192.99 113.29 188.75 114.00 185.00 114.00 Z"/>
</g>
<g fill="None" fill-opacity="0.0" stroke="#D5045F" stroke-opacity="1.00" stroke-width="0.3"><path d="
M 263.00 166.00 
C 263.03 166.00 263.00 167.00 263.00 167.00
C 302.05 167.00 340.37 203.85 345.00 242.00
C 349.21 248.53 358.30 252.66 362.75 259.25 C 367.20 265.84 376.74 270.55 380.75 277.25 C 384.76 283.95 396.48 288.17 399.00 295.00
C 399.00 282.67 399.00 270.33 399.00 258.00
C 396.76 251.92 386.56 248.10 382.75 242.25 C 378.95 236.40 371.41 231.81 366.75 226.25 C 362.10 220.68 355.81 215.68 350.75 210.25 C 345.70 204.81 340.02 199.62 334.75 194.25 C 329.48 188.88 323.62 183.02 318.25 177.75 C 312.88 172.48 307.70 166.81 302.25 161.75 C 296.80 156.70 291.85 150.41 286.25 145.75 C 280.64 141.10 276.19 133.55 270.25 129.75 C 264.31 125.95 260.13 115.26 254.00 113.00
C 241.33 113.00 228.67 113.00 216.00 113.00
C 232.62 131.12 251.33 147.83 268.00 166.00
C 266.34 165.91 264.66 166.12 263.00 166.00 Z"/>
</g>
<g fill="None" fill-opacity="0.0" stroke="#CE0273" stroke-opacity="1.00" stroke-width="0.3"><path d="
M 399.00 258.00 
C 399.00 245.67 399.00 233.33 399.00 221.00
C 397.16 216.02 388.87 213.14 385.75 208.25 C 382.63 203.35 375.97 199.50 372.25 194.75 C 368.52 190.00 362.36 186.04 359.00 181.00
C 349.78 185.66 340.29 183.46 333.25 175.75 C 326.21 168.04 328.64 158.84 332.00 150.00
C 333.98 144.78 329.27 140.98 324.75 137.25 C 320.23 133.52 317.33 128.18 312.75 125.25 C 308.18 122.32 305.56 114.68 301.00 113.00
C 297.67 113.00 294.33 113.00 291.00 113.00
C 278.67 113.00 266.33 113.00 254.00 113.00
C 260.13 115.26 264.31 125.95 270.25 129.75 C 276.19 133.55 280.64 141.10 286.25 145.75 C 291.85 150.41 296.80 156.70 302.25 161.75 C 307.70 166.81 312.88 172.48 318.25 177.75 C 323.62 183.02 329.48 188.88 334.75 194.25 C 340.02 199.62 345.70 204.81 350.75 210.25 C 355.81 215.68 362.10 220.68 366.75 226.25 C 371.41 231.81 378.95 236.40 382.75 242.25 C 386.56 248.10 396.76 251.92 399.00 258.00 Z"/>
</g>
<g fill="None" fill-opacity="0.0" stroke="#C60A8D" stroke-opacity="1.00" stroke-width="0.3"><path d="
M 332.00 150.00 
C 350.22 122.89 389.93 165.36 359.00 181.00
C 362.36 186.04 368.52 190.00 372.25 194.75 C 375.97 199.50 382.63 203.35 385.75 208.25 C 388.87 213.14 397.16 216.02 399.00 221.00
C 399.00 217.00 399.00 213.00 399.00 209.00
C 399.00 181.83 399.17 152.13 378.75 132.25 C 358.33 112.37 328.31 113.00 301.00 113.00
C 305.56 114.68 308.18 122.32 312.75 125.25 C 317.33 128.18 320.23 133.52 324.75 137.25 C 329.27 140.98 333.98 144.78 332.00 150.00 Z"/>
</g>
<g fill="None" fill-opacity="0.0" stroke="#E80526" stroke-opacity="1.00" stroke-width="0.3"><path d="
M 145.00 124.00 
C 163.84 143.67 183.38 163.21 203.00 182.00
C 202.46 183.66 200.44 184.33 200.00 186.00
C 208.03 179.66 217.40 174.29 227.00 171.00
C 229.30 167.92 218.20 160.25 215.25 156.75 C 212.30 153.25 205.24 146.45 201.25 142.75 C 197.25 139.06 191.84 132.00 187.25 128.75 C 182.66 125.51 178.44 116.44 173.00 115.00
C 162.41 116.51 154.11 118.82 145.00 124.00 Z"/>
</g>
<g fill="None" fill-opacity="0.0" stroke="#F85B12" stroke-opacity="0.99" stroke-width="0.3"><path d="
M 25.00 145.00 
C 31.07 150.96 38.79 157.24 44.25 163.75 C 49.70 170.26 58.69 175.98 63.25 182.75 C 67.80 189.53 80.11 194.55 82.00 202.00
C 82.66 189.79 82.00 177.81 84.00 166.00
C 81.59 168.47 74.68 158.55 71.75 156.25 C 68.83 153.95 63.68 147.85 60.25 144.75 C 56.82 141.66 52.42 136.65 48.75 133.25 C 45.09 129.85 41.10 125.01 37.00 122.00
C 32.40 129.43 28.82 137.28 25.00 145.00 Z"/>
</g>
<g fill="None" fill-opacity="0.0" stroke="#F2130C" stroke-opacity="1.00" stroke-width="0.3"><path d="
M 118.00 159.00 
C 119.01 164.53 129.06 169.02 132.25 173.75 C 135.44 178.48 142.88 184.08 146.75 188.25 C 150.62 192.42 157.34 199.59 161.25 202.75 C 165.16 205.91 172.11 217.02 176.00 215.00
C 181.22 204.45 190.36 193.61 200.00 186.00
C 200.44 184.33 202.46 183.66 203.00 182.00
C 183.38 163.21 163.84 143.67 145.00 124.00
C 130.64 132.17 123.10 143.70 118.00 159.00 Z"/>
</g>
<g fill="None" fill-opacity="0.0" stroke="#FEFDFE" stroke-opacity="1.00" stroke-width="0.3"><path d="
M 332.00 150.00 
C 328.64 158.84 326.21 168.04 333.25 175.75 C 340.29 183.46 349.78 185.66 359.00 181.00
C 389.93 165.36 350.22 122.89 332.00 150.00 Z"/>
</g>
<g fill="None" fill-opacity="0.0" stroke="#F97214" stroke-opacity="0.99" stroke-width="0.3"><path d="
M 16.00 166.00 
C 17.12 172.34 28.23 176.42 31.75 182.25 C 35.27 188.07 44.23 192.97 48.25 198.75 C 52.26 204.54 60.68 208.75 64.25 214.75 C 67.82 220.75 78.75 224.89 81.00 231.00
C 81.00 228.67 81.00 226.33 81.00 224.00
C 81.00 216.47 81.61 209.24 82.00 202.00
C 80.11 194.55 67.80 189.53 63.25 182.75 C 58.69 175.98 49.70 170.26 44.25 163.75 C 38.79 157.24 31.07 150.96 25.00 145.00
C 21.68 151.72 18.66 158.79 16.00 166.00 Z"/>
</g>
<g fill="None" fill-opacity="0.0" stroke="#F64110" stroke-opacity="1.00" stroke-width="0.3"><path d="
M 113.00 208.00 
C 113.00 209.33 113.00 210.67 113.00 212.00
C 114.64 216.85 123.25 220.00 126.25 224.75 C 129.24 229.50 135.49 233.23 139.25 237.75 C 143.01 242.28 148.10 246.33 152.25 250.75 C 156.39 255.18 161.42 260.11 166.00 264.00
C 166.00 263.00 166.00 262.00 166.00 261.00
C 164.51 245.62 169.43 228.30 176.00 215.00
C 172.11 217.02 165.16 205.91 161.25 202.75 C 157.34 199.59 150.62 192.42 146.75 188.25 C 142.88 184.08 135.44 178.48 132.25 173.75 C 129.06 169.02 119.01 164.53 118.00 159.00
C 113.01 173.98 113.00 191.38 113.00 208.00 Z"/>
</g>
<g fill="None" fill-opacity="0.0" stroke="#FA8616" stroke-opacity="0.99" stroke-width="0.3"><path d="
M 10.00 185.00 
C 11.70 192.22 23.27 196.31 27.25 202.75 C 31.23 209.20 40.80 214.39 45.25 220.75 C 49.70 227.11 58.81 231.68 62.75 238.25 C 66.69 244.82 78.52 249.28 81.00 256.00
C 81.00 247.67 81.00 239.33 81.00 231.00
C 78.75 224.89 67.82 220.75 64.25 214.75 C 60.68 208.75 52.26 204.54 48.25 198.75 C 44.23 192.97 35.27 188.07 31.75 182.25 C 28.23 176.42 17.12 172.34 16.00 166.00
C 13.76 172.06 11.78 178.51 10.00 185.00 Z"/>
</g>
<g fill="None" fill-opacity="0.0" stroke="#F3A5BE" stroke-opacity="1.00" stroke-width="0.3"><path d="
M 249.00 167.00 
C 253.66 166.91 258.34 167.00 263.00 167.00
C 263.00 167.00 263.03 166.00 263.00 166.00
C 258.23 165.57 253.06 166.51 249.00 167.00 Z"/>
</g>
<g fill="None" fill-opacity="0.0" stroke="#FEFDFD" stroke-opacity="1.00" stroke-width="0.3"><path d="
M 227.00 171.00 
C 217.40 174.29 208.03 179.66 200.00 186.00
C 190.36 193.61 181.22 204.45 176.00 215.00
C 169.43 228.30 164.51 245.62 166.00 261.00
C 170.07 303.01 203.88 344.10 249.00 345.00
C 253.65 345.09 258.35 345.09 263.00 345.00
C 282.80 344.60 299.36 335.17 315.00 324.00
C 325.29 315.38 333.69 302.47 339.00 291.00
C 342.07 284.37 344.75 274.39 345.00 267.00
C 345.03 266.00 345.00 265.00 345.00 264.00
C 345.00 258.33 345.00 252.67 345.00 247.00
C 345.00 245.38 345.20 243.61 345.00 242.00
C 340.37 203.85 302.05 167.00 263.00 167.00
C 258.34 167.00 253.66 166.91 249.00 167.00
C 241.43 167.15 233.96 168.62 227.00 171.00
M 314.00 251.00 
C 314.85 263.43 312.08 272.72 307.00 283.00
C 289.96 317.46 241.97 324.38 214.75 297.25 C 187.54 270.11 194.59 222.02 229.00 205.00
C 239.47 199.82 248.34 197.14 261.00 198.00
C 288.67 199.88 312.12 223.32 314.00 251.00 Z"/>
</g>
<g fill="None" fill-opacity="0.0" stroke="#FB9B19" stroke-opacity="0.99" stroke-width="0.3"><path d="
M 2.00 223.00 
C 4.00 228.75 14.16 232.52 17.75 238.25 C 21.35 243.98 28.91 248.20 33.25 253.75 C 37.59 259.30 44.82 264.17 49.25 269.75 C 53.68 275.33 60.79 279.41 64.75 285.25 C 68.71 291.08 78.02 295.02 81.00 301.00
C 79.74 286.25 81.00 270.81 81.00 256.00
C 78.52 249.28 66.69 244.82 62.75 238.25 C 58.81 231.68 49.70 227.11 45.25 220.75 C 40.80 214.39 31.23 209.20 27.25 202.75 C 23.27 196.31 11.70 192.22 10.00 185.00
C 6.59 197.40 3.62 209.63 2.00 223.00 Z"/>
</g>
<g fill="None" fill-opacity="0.0" stroke="#C5018D" stroke-opacity="0.99" stroke-width="0.3"><path d="
M 430.00 191.00 
C 430.00 195.67 430.00 200.33 430.00 205.00
C 431.25 217.89 431.00 232.39 431.00 246.00
C 432.97 251.33 442.40 255.14 445.75 260.25 C 449.10 265.36 456.20 270.08 460.25 274.75 C 464.30 279.42 471.12 285.63 475.25 289.75 C 479.37 293.87 486.09 301.30 489.75 304.25 C 493.41 307.19 502.01 319.43 505.00 317.00
C 508.02 304.62 510.34 291.36 512.00 279.00
L 512.00 263.00
C 509.94 264.07 511.47 267.12 511.00 269.00
C 506.80 265.80 503.11 261.48 499.25 257.75 C 495.39 254.02 491.55 249.99 487.75 246.25 C 483.95 242.51 479.97 238.44 476.25 234.75 C 472.53 231.06 468.31 226.79 464.75 223.25 C 461.19 219.70 456.46 214.96 453.25 211.75 C 450.03 208.54 444.21 202.70 441.75 200.25 C 439.29 197.79 431.37 188.76 430.00 191.00 Z"/>
</g>
<g fill="None" fill-opacity="0.0" stroke="#E80327" stroke-opacity="1.00" stroke-width="0.3"><path d="
M 229.00 205.00 
C 235.03 205.93 239.46 216.79 244.75 220.25 C 250.04 223.71 255.31 231.29 260.25 235.75 C 265.19 240.21 271.32 246.27 275.75 251.25 C 280.19 256.23 287.80 261.37 291.25 266.75 C 294.69 272.13 306.06 276.90 307.00 283.00
C 312.08 272.72 314.85 263.43 314.00 251.00
C 312.25 246.25 303.95 242.76 300.75 238.25 C 297.56 233.73 291.24 228.75 287.25 224.75 C 283.26 220.76 278.83 214.86 274.25 211.75 C 269.66 208.64 265.76 199.76 261.00 198.00
C 248.34 197.14 239.47 199.82 229.00 205.00 Z"/>
</g>
<g fill="None" fill-opacity="0.0" stroke="#E10F3F" stroke-opacity="1.00" stroke-width="0.3"><path d="
M 314.00 251.00 
C 312.12 223.32 288.67 199.88 261.00 198.00
C 265.76 199.76 269.66 208.64 274.25 211.75 C 278.83 214.86 283.26 220.76 287.25 224.75 C 291.24 228.75 297.56 233.73 300.75 238.25 C 303.95 242.76 312.25 246.25 314.00 251.00 Z"/>
</g>
<g fill="None" fill-opacity="0.0" stroke="#F3200D" stroke-opacity="1.00" stroke-width="0.3"><path d="
M 307.00 283.00 
C 306.06 276.90 294.69 272.13 291.25 266.75 C 287.80 261.37 280.19 256.23 275.75 251.25 C 271.32 246.27 265.19 240.21 260.25 235.75 C 255.31 231.29 250.04 223.71 244.75 220.25 C 239.46 216.79 235.03 205.93 229.00 205.00
C 194.59 222.02 187.54 270.11 214.75 297.25 C 241.97 324.38 289.96 317.46 307.00 283.00 Z"/>
</g>
<g fill="None" fill-opacity="0.0" stroke="#F0B7DA" stroke-opacity="1.00" stroke-width="0.3"><path d="
M 430.00 304.00 
C 430.30 300.92 431.00 296.75 431.00 293.00
C 431.00 277.33 431.00 261.67 431.00 246.00
C 431.00 232.39 431.25 217.89 430.00 205.00
C 430.00 238.00 430.00 271.00 430.00 304.00 Z"/>
</g>
<g fill="None" fill-opacity="0.0" stroke="#FDE1CC" stroke-opacity="1.00" stroke-width="0.3"><path d="
M 113.00 286.00 
C 113.00 281.33 113.00 276.67 113.00 272.00
C 113.00 263.00 113.00 254.00 113.00 245.00
C 113.00 234.00 113.00 223.00 113.00 212.00
C 113.00 210.67 113.00 209.33 113.00 208.00
C 110.64 232.39 110.63 261.54 113.00 286.00 Z"/>
</g>
<g fill="None" fill-opacity="0.0" stroke="#F6CDE2" stroke-opacity="1.00" stroke-width="0.3"><path d="
M 399.00 221.00 
C 399.00 233.33 399.00 245.67 399.00 258.00
C 399.00 270.33 399.00 282.67 399.00 295.00
C 399.00 297.67 399.00 300.33 399.00 303.00
C 401.84 273.61 401.85 238.47 399.00 209.00
C 399.00 213.00 399.00 217.00 399.00 221.00 Z"/>
</g>
<g fill="None" fill-opacity="0.0" stroke="#F86314" stroke-opacity="1.00" stroke-width="0.3"><path d="
M 113.00 245.00 
C 115.39 251.48 126.20 255.54 130.25 261.75 C 134.30 267.97 142.30 272.84 147.25 278.75 C 152.20 284.66 158.88 289.98 164.25 295.75 C 169.62 301.52 175.65 307.05 181.25 312.75 C 186.84 318.45 193.05 324.65 198.75 330.25 C 204.45 335.85 209.97 341.88 215.75 347.25 C 221.54 352.62 226.80 359.30 232.75 364.25 C 238.70 369.20 243.45 377.20 249.75 381.25 C 256.06 385.30 260.47 396.59 267.00 399.00
C 274.33 399.00 281.67 399.00 289.00 399.00
C 296.99 399.00 305.01 399.16 313.00 399.00
C 305.93 396.98 301.77 385.55 295.25 381.75 C 288.73 377.95 284.37 367.95 277.75 364.25 C 271.13 360.54 266.70 348.47 260.00 346.00
C 256.16 346.33 252.07 345.37 249.00 345.00
C 203.88 344.10 170.07 303.01 166.00 261.00
C 166.00 262.00 166.00 263.00 166.00 264.00
C 161.42 260.11 156.39 255.18 152.25 250.75 C 148.10 246.33 143.01 242.28 139.25 237.75 C 135.49 233.23 129.24 229.50 126.25 224.75 C 123.25 220.00 114.64 216.85 113.00 212.00
C 113.00 223.00 113.00 234.00 113.00 245.00 Z"/>
</g>
<g fill="None" fill-opacity="0.0" stroke="#FCB21D" stroke-opacity="1.00" stroke-width="0.3"><path d="
M 0.00 233.00 
L 0.00 235.00
C 1.52 236.96 1.72 242.11 0.00 244.00
L 0.00 268.00
C 0.50 268.00 1.00 268.00 1.00 268.00
C 1.72 265.58 10.94 275.19 14.25 278.75 C 17.56 282.32 24.27 288.56 28.25 292.75 C 32.22 296.94 38.07 302.25 42.25 306.75 C 46.42 311.25 52.20 316.06 56.25 320.75 C 60.30 325.45 66.74 329.85 70.25 334.75 C 73.76 339.66 81.89 343.98 84.00 347.00
C 81.64 333.02 82.00 318.56 82.00 304.00
C 81.84 303.26 81.11 302.26 81.00 301.00
C 78.02 295.02 68.71 291.08 64.75 285.25 C 60.79 279.41 53.68 275.33 49.25 269.75 C 44.82 264.17 37.59 259.30 33.25 253.75 C 28.91 248.20 21.35 243.98 17.75 238.25 C 14.16 232.52 4.00 228.75 2.00 223.00
C 1.70 225.51 0.91 230.50 0.00 233.00 Z"/>
</g>
<g fill="None" fill-opacity="0.0" stroke="#FEE4C5" stroke-opacity="1.00" stroke-width="0.3"><path d="
M 81.00 231.00 
C 81.00 239.33 81.00 247.67 81.00 256.00
C 81.00 270.81 79.74 286.25 81.00 301.00
C 81.11 302.26 81.84 303.26 82.00 304.00
C 82.00 277.59 83.48 249.62 81.00 224.00
C 81.00 226.33 81.00 228.67 81.00 231.00 Z"/>
</g>
<g fill="None" fill-opacity="0.0" stroke="#FCB11C" stroke-opacity="0.46" stroke-width="0.3"><path d="
M 0.00 244.00 
C 1.72 242.11 1.52 236.96 0.00 235.00
L 0.00 244.00 Z"/>
</g>
<g fill="None" fill-opacity="0.0" stroke="#BE00A2" stroke-opacity="0.60" stroke-width="0.3"><path d="
M 512.00 249.00 
L 512.00 236.00
C 510.29 239.20 510.42 245.73 512.00 249.00 Z"/>
</g>
<g fill="None" fill-opacity="0.0" stroke="#DC014A" stroke-opacity="1.00" stroke-width="0.3"><path d="
M 345.00 247.00 
C 345.58 252.41 346.19 258.59 345.00 264.00
C 345.00 265.00 345.03 266.00 345.00 267.00
C 345.33 266.20 346.14 264.55 347.00 264.00
C 363.34 281.83 381.71 298.21 398.00 316.00
C 398.16 316.23 399.00 316.00 399.00 316.00
C 399.00 311.67 399.00 307.33 399.00 303.00
C 399.00 300.33 399.00 297.67 399.00 295.00
C 396.48 288.17 384.76 283.95 380.75 277.25 C 376.74 270.55 367.20 265.84 362.75 259.25 C 358.30 252.66 349.21 248.53 345.00 242.00
C 345.20 243.61 345.00 245.38 345.00 247.00 Z"/>
</g>
<g fill="None" fill-opacity="0.0" stroke="#F97914" stroke-opacity="1.00" stroke-width="0.3"><path d="
M 113.00 272.00 
C 115.20 277.96 124.94 281.50 128.75 287.25 C 132.56 293.00 140.11 297.76 144.75 303.25 C 149.40 308.74 155.73 313.91 160.75 319.25 C 165.78 324.59 171.56 330.06 176.75 335.25 C 181.95 340.44 186.91 345.77 192.25 350.75 C 197.59 355.73 202.73 362.13 208.25 366.75 C 213.77 371.38 218.43 378.96 224.25 382.75 C 230.07 386.55 234.01 396.79 240.00 399.00
C 249.00 399.00 258.00 399.00 267.00 399.00
C 260.47 396.59 256.06 385.30 249.75 381.25 C 243.45 377.20 238.70 369.20 232.75 364.25 C 226.80 359.30 221.54 352.62 215.75 347.25 C 209.97 341.88 204.45 335.85 198.75 330.25 C 193.05 324.65 186.84 318.45 181.25 312.75 C 175.65 307.05 169.62 301.52 164.25 295.75 C 158.88 289.98 152.20 284.66 147.25 278.75 C 142.30 272.84 134.30 267.97 130.25 261.75 C 126.20 255.54 115.39 251.48 113.00 245.00
C 113.00 254.00 113.00 263.00 113.00 272.00 Z"/>
</g>
<g fill="None" fill-opacity="0.0" stroke="#CD0074" stroke-opacity="0.99" stroke-width="0.3"><path d="
M 431.00 293.00 
C 432.61 297.37 440.46 300.51 443.25 304.75 C 446.04 308.99 451.77 312.89 455.25 316.75 C 458.72 320.62 464.05 325.86 467.75 329.25 C 471.46 332.63 476.06 338.91 479.75 341.25 C 483.45 343.59 488.87 354.13 493.00 353.00
C 497.81 341.32 501.93 329.58 505.00 317.00
C 502.01 319.43 493.41 307.19 489.75 304.25 C 486.09 301.30 479.37 293.87 475.25 289.75 C 471.12 285.63 464.30 279.42 460.25 274.75 C 456.20 270.08 449.10 265.36 445.75 260.25 C 442.40 255.14 432.97 251.33 431.00 246.00
C 431.00 261.67 431.00 277.33 431.00 293.00 Z"/>
</g>
<g fill="None" fill-opacity="0.0" stroke="#F298B5" stroke-opacity="1.00" stroke-width="0.3"><path d="
M 345.00 264.00 
C 346.19 258.59 345.58 252.41 345.00 247.00
C 345.00 252.67 345.00 258.33 345.00 264.00 Z"/>
</g>
<g fill="None" fill-opacity="0.0" stroke="#E20338" stroke-opacity="1.00" stroke-width="0.3"><path d="
M 345.00 267.00 
C 344.75 274.39 342.07 284.37 339.00 291.00
C 345.02 296.85 352.32 302.83 357.75 309.25 C 363.19 315.67 372.08 321.58 376.75 328.25 C 381.42 334.92 393.67 340.16 395.00 348.00
C 396.60 341.21 398.00 334.76 398.00 327.00
C 398.00 323.38 397.67 319.60 398.00 316.00
C 381.71 298.21 363.34 281.83 347.00 264.00
C 346.14 264.55 345.33 266.20 345.00 267.00 Z"/>
</g>
<g fill="None" fill-opacity="0.0" stroke="#FECA20" stroke-opacity="0.98" stroke-width="0.3"><path d="
M 1.00 268.00 
C 1.28 271.09 1.60 275.71 0.00 278.00
L 0.00 279.00
C 8.14 398.05 114.03 503.85 233.00 512.00
L 234.00 512.00
C 236.41 510.35 240.84 510.87 244.00 511.00
C 237.69 508.47 233.80 498.27 227.75 494.25 C 221.71 490.23 216.98 482.59 211.25 477.75 C 205.51 472.92 200.34 466.46 194.75 461.25 C 189.17 456.04 183.74 450.15 178.25 444.75 C 172.76 439.36 166.93 433.77 162.00 428.00
C 163.00 428.00 164.00 428.00 165.00 428.00
C 122.49 422.86 90.94 388.03 84.00 347.00
C 81.89 343.98 73.76 339.66 70.25 334.75 C 66.74 329.85 60.30 325.45 56.25 320.75 C 52.20 316.06 46.42 311.25 42.25 306.75 C 38.07 302.25 32.22 296.94 28.25 292.75 C 24.27 288.56 17.56 282.32 14.25 278.75 C 10.94 275.19 1.72 265.58 1.00 268.00 Z"/>
</g>
<g fill="None" fill-opacity="0.0" stroke="#FEBF1E" stroke-opacity="0.42" stroke-width="0.3"><path d="
M 0.00 278.00 
C 1.60 275.71 1.28 271.09 1.00 268.00
C 1.00 268.00 0.50 268.00 0.00 268.00
L 0.00 278.00 Z"/>
</g>
<g fill="None" fill-opacity="0.0" stroke="#FA8D17" stroke-opacity="1.00" stroke-width="0.3"><path d="
M 113.00 286.00 
C 113.00 292.00 113.00 298.00 113.00 304.00
C 114.89 310.24 124.22 314.20 128.25 319.75 C 132.28 325.30 139.53 330.47 144.25 335.75 C 148.97 341.03 154.65 346.25 159.75 351.25 C 164.86 356.25 170.39 362.67 175.75 367.25 C 181.12 371.83 185.53 379.11 191.25 382.75 C 196.97 386.40 201.11 396.95 207.00 399.00
C 209.33 399.00 211.67 399.00 214.00 399.00
C 222.67 399.00 231.33 399.00 240.00 399.00
C 234.01 396.79 230.07 386.55 224.25 382.75 C 218.43 378.96 213.77 371.38 208.25 366.75 C 202.73 362.13 197.59 355.73 192.25 350.75 C 186.91 345.77 181.95 340.44 176.75 335.25 C 171.56 330.06 165.78 324.59 160.75 319.25 C 155.73 313.91 149.40 308.74 144.75 303.25 C 140.11 297.76 132.56 293.00 128.75 287.25 C 124.94 281.50 115.20 277.96 113.00 272.00
C 113.00 276.67 113.00 281.33 113.00 286.00 Z"/>
</g>
<g fill="None" fill-opacity="0.0" stroke="#000000" stroke-opacity="0.00" stroke-width="0.3"><path d="
M 0.00 512.00 
L 233.00 512.00
C 114.03 503.85 8.14 398.05 0.00 279.00
L 0.00 512.00 Z"/>
</g>
<g fill="None" fill-opacity="0.0" stroke="#000000" stroke-opacity="0.00" stroke-width="0.3"><path d="
M 505.00 317.00 
C 501.93 329.58 497.81 341.32 493.00 353.00
C 490.12 360.01 487.55 367.06 484.00 374.00
C 479.32 383.15 473.57 391.62 468.00 400.00
C 462.17 408.76 455.94 416.88 449.00 425.00
C 437.98 437.89 424.87 449.14 412.00 459.00
C 403.55 465.48 395.30 471.60 386.00 477.00
C 379.87 480.56 373.43 483.82 367.00 487.00
C 361.87 489.54 356.45 491.78 351.00 494.00
C 343.95 496.87 336.53 499.68 329.00 502.00
C 320.07 504.75 311.25 506.25 302.00 508.00
C 297.54 508.84 291.87 510.54 287.00 511.00
C 284.45 511.24 280.72 510.05 279.00 512.00
L 512.00 512.00
L 512.00 279.00
C 510.34 291.36 508.02 304.62 505.00 317.00 Z"/>
</g>
<g fill="None" fill-opacity="0.0" stroke="#EC051D" stroke-opacity="1.00" stroke-width="0.3"><path d="
M 315.00 324.00 
C 317.25 322.39 319.59 320.35 321.00 318.00
C 342.08 335.26 360.45 357.61 381.00 376.00
C 379.89 378.41 377.04 379.62 376.00 382.00
C 386.96 372.26 391.76 361.69 395.00 348.00
C 393.67 340.16 381.42 334.92 376.75 328.25 C 372.08 321.58 363.19 315.67 357.75 309.25 C 352.32 302.83 345.02 296.85 339.00 291.00
C 333.69 302.47 325.29 315.38 315.00 324.00 Z"/>
</g>
<g fill="None" fill-opacity="0.0" stroke="#D5025F" stroke-opacity="0.99" stroke-width="0.3"><path d="
M 430.00 304.00 
C 430.00 309.67 430.00 315.33 430.00 321.00
C 432.49 327.76 443.48 331.77 447.75 338.25 C 452.02 344.72 460.61 350.06 465.75 356.25 C 470.90 362.44 478.29 368.42 484.00 374.00
C 487.55 367.06 490.12 360.01 493.00 353.00
C 488.87 354.13 483.45 343.59 479.75 341.25 C 476.06 338.91 471.46 332.63 467.75 329.25 C 464.05 325.86 458.72 320.62 455.25 316.75 C 451.77 312.89 446.04 308.99 443.25 304.75 C 440.46 300.51 432.61 297.37 431.00 293.00
C 431.00 296.75 430.30 300.92 430.00 304.00 Z"/>
</g>
<g fill="None" fill-opacity="0.0" stroke="#FBA41E" stroke-opacity="1.00" stroke-width="0.3"><path d="
M 207.00 399.00 
C 201.11 396.95 196.97 386.40 191.25 382.75 C 185.53 379.11 181.12 371.83 175.75 367.25 C 170.39 362.67 164.86 356.25 159.75 351.25 C 154.65 346.25 148.97 341.03 144.25 335.75 C 139.53 330.47 132.28 325.30 128.25 319.75 C 124.22 314.20 114.89 310.24 113.00 304.00
C 113.00 330.42 113.26 359.80 132.75 379.25 C 152.24 398.70 180.71 399.00 207.00 399.00 Z"/>
</g>
<g fill="None" fill-opacity="0.0" stroke="#F18DA8" stroke-opacity="1.00" stroke-width="0.3"><path d="
M 398.00 327.00 
C 398.29 323.99 399.00 319.75 399.00 316.00
C 399.00 316.00 398.16 316.23 398.00 316.00
C 397.67 319.60 398.00 323.38 398.00 327.00 Z"/>
</g>
<g fill="None" fill-opacity="0.0" stroke="#F52C0C" stroke-opacity="1.00" stroke-width="0.3"><path d="
M 315.00 324.00 
C 299.36 335.17 282.80 344.60 263.00 345.00
C 262.28 345.15 261.24 345.89 260.00 346.00
C 266.70 348.47 271.13 360.54 277.75 364.25 C 284.37 367.95 288.73 377.95 295.25 381.75 C 301.77 385.55 305.93 396.98 313.00 399.00
C 333.82 398.58 360.84 397.77 376.00 382.00
C 377.04 379.62 379.89 378.41 381.00 376.00
C 360.45 357.61 342.08 335.26 321.00 318.00
C 319.59 320.35 317.25 322.39 315.00 324.00 Z"/>
</g>
<g fill="None" fill-opacity="0.0" stroke="#DD0349" stroke-opacity="0.99" stroke-width="0.3"><path d="
M 425.00 360.00 
C 427.95 357.61 432.77 366.30 435.75 368.25 C 438.73 370.20 443.00 376.51 446.25 378.75 C 449.49 380.99 453.41 387.55 456.75 389.25 C 460.09 390.94 464.46 400.41 468.00 400.00
C 473.57 391.62 479.32 383.15 484.00 374.00
C 478.29 368.42 470.90 362.44 465.75 356.25 C 460.61 350.06 452.02 344.72 447.75 338.25 C 443.48 331.77 432.49 327.76 430.00 321.00
C 430.00 334.16 428.03 347.56 425.00 360.00 Z"/>
</g>
<g fill="None" fill-opacity="0.0" stroke="#FCC0A9" stroke-opacity="1.00" stroke-width="0.3"><path d="
M 260.00 346.00 
C 261.24 345.89 262.28 345.15 263.00 345.00
C 258.35 345.09 253.65 345.09 249.00 345.00
C 252.07 345.37 256.16 346.33 260.00 346.00 Z"/>
</g>
<g fill="None" fill-opacity="0.0" stroke="#E70329" stroke-opacity="0.99" stroke-width="0.3"><path d="
M 425.00 360.00 
C 422.44 370.49 417.04 382.11 411.00 391.00
C 415.32 390.75 419.17 400.70 423.25 402.75 C 427.32 404.80 431.62 412.80 435.75 415.25 C 439.88 417.70 443.87 427.33 449.00 425.00
C 455.94 416.88 462.17 408.76 468.00 400.00
C 464.46 400.41 460.09 390.94 456.75 389.25 C 453.41 387.55 449.49 380.99 446.25 378.75 C 443.00 376.51 438.73 370.20 435.75 368.25 C 432.77 366.30 427.95 357.61 425.00 360.00 Z"/>
</g>
<g fill="None" fill-opacity="0.0" stroke="#F3150B" stroke-opacity="0.99" stroke-width="0.3"><path d="
M 375.00 420.00 
C 373.93 424.60 384.88 429.18 386.75 433.25 C 388.62 437.31 397.40 441.57 399.25 445.75 C 401.10 449.93 412.15 454.50 412.00 459.00
C 424.87 449.14 437.98 437.89 449.00 425.00
C 443.87 427.33 439.88 417.70 435.75 415.25 C 431.62 412.80 427.32 404.80 423.25 402.75 C 419.17 400.70 415.32 390.75 411.00 391.00
C 402.83 403.03 387.64 414.15 375.00 420.00 Z"/>
</g>
<g fill="None" fill-opacity="0.0" stroke="#FDE1CB" stroke-opacity="1.00" stroke-width="0.3"><path d="
M 289.00 399.00 
C 281.67 399.00 274.33 399.00 267.00 399.00
C 258.00 399.00 249.00 399.00 240.00 399.00
C 231.33 399.00 222.67 399.00 214.00 399.00
C 237.46 401.24 265.47 401.28 289.00 399.00 Z"/>
</g>
<g fill="None" fill-opacity="0.0" stroke="#F6400F" stroke-opacity="0.99" stroke-width="0.3"><path d="
M 339.00 429.00 
C 344.95 431.20 348.50 440.97 354.25 444.75 C 359.99 448.53 364.76 456.18 370.25 460.75 C 375.74 465.32 381.11 471.88 386.00 477.00
C 395.30 471.60 403.55 465.48 412.00 459.00
C 412.15 454.50 401.10 449.93 399.25 445.75 C 397.40 441.57 388.62 437.31 386.75 433.25 C 384.88 429.18 373.93 424.60 375.00 420.00
C 364.27 424.96 350.83 428.06 339.00 429.00 Z"/>
</g>
<g fill="None" fill-opacity="0.0" stroke="#FDB31D" stroke-opacity="1.00" stroke-width="0.3"><path d="
M 244.00 511.00 
C 245.58 511.06 248.21 510.29 249.00 512.00
L 279.00 512.00
C 280.72 510.05 284.45 511.24 287.00 511.00
C 282.25 503.65 274.78 497.13 268.25 490.75 C 261.72 484.38 255.05 476.74 248.25 470.75 C 241.45 464.76 235.98 456.42 228.75 451.25 C 221.52 446.08 216.58 434.77 209.00 431.00
C 207.66 430.88 206.79 430.17 206.00 430.00
C 192.02 430.00 178.55 429.64 165.00 428.00
C 164.00 428.00 163.00 428.00 162.00 428.00
C 166.93 433.77 172.76 439.36 178.25 444.75 C 183.74 450.15 189.17 456.04 194.75 461.25 C 200.34 466.46 205.51 472.92 211.25 477.75 C 216.98 482.59 221.71 490.23 227.75 494.25 C 233.80 498.27 237.69 508.47 244.00 511.00 Z"/>
</g>
<g fill="None" fill-opacity="0.0" stroke="#F85C12" stroke-opacity="0.99" stroke-width="0.3"><path d="
M 316.00 430.00 
C 315.04 430.17 313.53 430.91 312.00 431.00
C 317.17 432.91 320.22 441.44 325.25 444.75 C 330.28 448.07 334.44 454.69 339.25 458.75 C 344.06 462.81 348.57 468.36 353.25 472.75 C 357.93 477.15 362.89 482.18 367.00 487.00
C 373.43 483.82 379.87 480.56 386.00 477.00
C 381.11 471.88 375.74 465.32 370.25 460.75 C 364.76 456.18 359.99 448.53 354.25 444.75 C 348.50 440.97 344.95 431.20 339.00 429.00
C 331.22 429.62 323.87 430.00 316.00 430.00 Z"/>
</g>
<g fill="None" fill-opacity="0.0" stroke="#FDE1C1" stroke-opacity="1.00" stroke-width="0.3"><path d="
M 209.00 431.00 
C 214.90 431.51 221.07 431.00 227.00 431.00
C 238.00 431.00 249.00 431.00 260.00 431.00
C 269.67 431.00 279.33 431.00 289.00 431.00
C 292.00 431.00 295.00 431.00 298.00 431.00
C 297.96 431.00 298.00 430.00 298.00 430.00
C 267.33 430.00 236.67 430.00 206.00 430.00
C 206.79 430.17 207.66 430.88 209.00 431.00 Z"/>
</g>
<g fill="None" fill-opacity="0.0" stroke="#FCAF81" stroke-opacity="1.00" stroke-width="0.3"><path d="
M 298.00 431.00 
C 302.64 431.00 307.37 431.27 312.00 431.00
C 313.53 430.91 315.04 430.17 316.00 430.00
C 310.00 430.00 304.00 430.00 298.00 430.00
C 298.00 430.00 297.96 431.00 298.00 431.00 Z"/>
</g>
<g fill="None" fill-opacity="0.0" stroke="#FCA41A" stroke-opacity="0.99" stroke-width="0.3"><path d="
M 287.00 511.00 
C 291.87 510.54 297.54 508.84 302.00 508.00
C 299.50 502.88 293.60 498.14 288.75 493.25 C 283.91 488.36 278.35 482.55 273.25 477.75 C 268.15 472.95 263.06 466.71 257.75 462.25 C 252.44 457.78 247.87 450.42 242.25 446.75 C 236.63 443.09 232.78 433.13 227.00 431.00
C 221.07 431.00 214.90 431.51 209.00 431.00
C 216.58 434.77 221.52 446.08 228.75 451.25 C 235.98 456.42 241.45 464.76 248.25 470.75 C 255.05 476.74 261.72 484.38 268.25 490.75 C 274.78 497.13 282.25 503.65 287.00 511.00 Z"/>
</g>
<g fill="None" fill-opacity="0.0" stroke="#FB9518" stroke-opacity="0.99" stroke-width="0.3"><path d="
M 302.00 508.00 
C 311.25 506.25 320.07 504.75 329.00 502.00
C 324.99 495.42 318.00 489.33 312.25 483.75 C 306.49 478.17 300.75 471.37 294.75 466.25 C 288.75 461.12 283.60 452.94 277.25 448.75 C 270.90 444.56 266.59 433.43 260.00 431.00
C 249.00 431.00 238.00 431.00 227.00 431.00
C 232.78 433.13 236.63 443.09 242.25 446.75 C 247.87 450.42 252.44 457.78 257.75 462.25 C 263.06 466.71 268.15 472.95 273.25 477.75 C 278.35 482.55 283.91 488.36 288.75 493.25 C 293.60 498.14 299.50 502.88 302.00 508.00 Z"/>
</g>
<g fill="None" fill-opacity="0.0" stroke="#FA8215" stroke-opacity="0.99" stroke-width="0.3"><path d="
M 329.00 502.00 
C 336.53 499.68 343.95 496.87 351.00 494.00
C 346.28 488.67 341.00 483.11 335.75 478.25 C 330.51 473.39 325.66 467.24 320.25 462.75 C 314.83 458.26 310.50 450.92 304.75 447.25 C 299.00 443.58 294.92 433.18 289.00 431.00
C 279.33 431.00 269.67 431.00 260.00 431.00
C 266.59 433.43 270.90 444.56 277.25 448.75 C 283.60 452.94 288.75 461.12 294.75 466.25 C 300.75 471.37 306.49 478.17 312.25 483.75 C 318.00 489.33 324.99 495.42 329.00 502.00 Z"/>
</g>
<g fill="None" fill-opacity="0.0" stroke="#F96F13" stroke-opacity="0.99" stroke-width="0.3"><path d="
M 351.00 494.00 
C 356.45 491.78 361.87 489.54 367.00 487.00
C 362.89 482.18 357.93 477.15 353.25 472.75 C 348.57 468.36 344.06 462.81 339.25 458.75 C 334.44 454.69 330.28 448.07 325.25 444.75 C 320.22 441.44 317.17 432.91 312.00 431.00
C 307.37 431.27 302.64 431.00 298.00 431.00
C 295.00 431.00 292.00 431.00 289.00 431.00
C 294.92 433.18 299.00 443.58 304.75 447.25 C 310.50 450.92 314.83 458.26 320.25 462.75 C 325.66 467.24 330.51 473.39 335.75 478.25 C 341.00 483.11 346.28 488.67 351.00 494.00 Z"/>
</g>
<g fill="None" fill-opacity="0.0" stroke="#FEBE1E" stroke-opacity="0.54" stroke-width="0.3"><path d="
M 234.00 512.00 
L 249.00 512.00
C 248.21 510.29 245.58 511.06 244.00 511.00
C 240.84 510.87 236.41 510.35 234.00 512.00 Z"/>
</g>
<g fill="#000000" fill-opacity="0.00" stroke="None">
<path d="
M 0.00 233.00 
C 0.91 230.50 1.70 225.51 2.00 223.00
C 3.62 209.63 6.59 197.40 10.00 185.00
C 11.78 178.51 13.76 172.06 16.00 166.00
C 18.66 158.79 21.68 151.72 25.00 145.00
C 28.82 137.28 32.40 129.43 37.00 122.00
C 42.45 113.20 48.79 105.03 55.00 97.00
C 68.06 80.12 84.04 64.61 101.00 52.00
C 108.12 46.70 115.44 41.58 123.00 37.00
C 130.15 32.67 137.44 28.74 145.00 25.00
C 157.90 18.62 170.97 13.86 185.00 10.00
C 200.28 5.80 217.04 1.49 233.00 0.00
L 0.00 0.00
L 0.00 233.00 Z"/>
</g>
<g fill="#C6018B" fill-opacity="0.99" stroke="None">
<path d="
M 185.00 10.00 
C 183.70 13.66 193.55 18.83 195.75 22.25 C 197.96 25.66 204.04 30.15 207.25 33.75 C 210.45 37.36 215.62 42.17 219.25 45.75 C 222.88 49.33 226.84 53.95 230.75 57.25 C 234.66 60.54 238.01 66.09 242.25 68.75 C 246.49 71.41 249.73 79.42 254.00 81.00
C 269.24 81.00 285.56 80.60 300.00 82.00
C 307.65 82.00 315.36 81.71 323.00 82.00
C 316.84 79.28 313.13 69.88 307.25 65.75 C 301.37 61.63 296.29 54.12 290.75 49.25 C 285.22 44.38 279.47 37.94 274.25 32.75 C 269.03 27.56 262.46 21.55 257.75 16.25 C 253.04 10.95 243.38 5.04 245.00 0.00
L 233.00 0.00
C 217.04 1.49 200.28 5.80 185.00 10.00 Z"/>
</g>
<g fill="#BC02A8" fill-opacity="0.99" stroke="None">
<path d="
M 323.00 82.00 
C 352.04 83.11 380.84 89.65 401.75 111.25 C 422.67 132.85 430.00 161.40 430.00 191.00
C 431.37 188.76 439.29 197.79 441.75 200.25 C 444.21 202.70 450.03 208.54 453.25 211.75 C 456.46 214.96 461.19 219.70 464.75 223.25 C 468.31 226.79 472.53 231.06 476.25 234.75 C 479.97 238.44 483.95 242.51 487.75 246.25 C 491.55 249.99 495.39 254.02 499.25 257.75 C 503.11 261.48 506.80 265.80 511.00 269.00
C 511.47 267.12 509.94 264.07 512.00 263.00
L 512.00 249.00
C 510.42 245.73 510.29 239.20 512.00 236.00
L 512.00 233.00
C 503.84 113.96 397.97 8.13 279.00 0.00
L 277.00 0.00
C 274.06 1.57 267.87 1.71 265.00 0.00
L 245.00 0.00
C 243.38 5.04 253.04 10.95 257.75 16.25 C 262.46 21.55 269.03 27.56 274.25 32.75 C 279.47 37.94 285.22 44.38 290.75 49.25 C 296.29 54.12 301.37 61.63 307.25 65.75 C 313.13 69.88 316.84 79.28 323.00 82.00 Z"/>
</g>
<g fill="#BD00A2" fill-opacity="0.53" stroke="None">
<path d="
M 277.00 0.00 
L 265.00 0.00
C 267.87 1.71 274.06 1.57 277.00 0.00 Z"/>
</g>
<g fill="#000000" fill-opacity="0.00" stroke="None">
<path d="
M 512.00 233.00 
L 512.00 0.00
L 279.00 0.00
C 397.97 8.13 503.84 113.96 512.00 233.00 Z"/>
</g>
<g fill="#D1016C" fill-opacity="0.99" stroke="None">
<path d="
M 145.00 25.00 
C 143.54 28.25 154.50 34.83 157.25 38.75 C 159.99 42.67 167.50 48.41 171.25 52.75 C 174.99 57.09 181.12 62.21 185.25 66.75 C 189.38 71.29 195.30 76.07 199.00 81.00
C 197.12 81.47 194.07 79.94 193.00 82.00
C 198.00 82.00 203.00 82.00 208.00 82.00
C 222.52 80.59 238.75 81.00 254.00 81.00
C 249.73 79.42 246.49 71.41 242.25 68.75 C 238.01 66.09 234.66 60.54 230.75 57.25 C 226.84 53.95 222.88 49.33 219.25 45.75 C 215.62 42.17 210.45 37.36 207.25 33.75 C 204.04 30.15 197.96 25.66 195.75 22.25 C 193.55 18.83 183.70 13.66 185.00 10.00
C 170.97 13.86 157.90 18.62 145.00 25.00 Z"/>
</g>
<g fill="#DA0251" fill-opacity="0.99" stroke="None">
<path d="
M 123.00 37.00 
C 122.57 40.69 132.40 45.28 134.25 48.75 C 136.10 52.23 143.35 56.92 145.75 60.25 C 148.15 63.58 155.24 68.91 157.25 71.75 C 159.25 74.60 169.61 81.70 167.00 84.00
C 175.47 82.76 184.26 82.00 193.00 82.00
C 194.07 79.94 197.12 81.47 199.00 81.00
C 195.30 76.07 189.38 71.29 185.25 66.75 C 181.12 62.21 174.99 57.09 171.25 52.75 C 167.50 48.41 159.99 42.67 157.25 38.75 C 154.50 34.83 143.54 28.25 145.00 25.00
C 137.44 28.74 130.15 32.67 123.00 37.00 Z"/>
</g>
<g fill="#E1033A" fill-opacity="0.99" stroke="None">
<path d="
M 101.00 52.00 
C 100.75 56.40 111.85 61.18 113.75 65.25 C 115.65 69.32 124.73 74.37 126.75 78.25 C 128.78 82.12 140.43 88.09 138.00 92.00
C 147.12 87.97 157.10 85.45 167.00 84.00
C 169.61 81.70 159.25 74.60 157.25 71.75 C 155.24 68.91 148.15 63.58 145.75 60.25 C 143.35 56.92 136.10 52.23 134.25 48.75 C 132.40 45.28 122.57 40.69 123.00 37.00
C 115.44 41.58 108.12 46.70 101.00 52.00 Z"/>
</g>
<g fill="#F00E15" fill-opacity="0.99" stroke="None">
<path d="
M 55.00 97.00 
C 59.35 96.75 63.69 107.27 67.75 109.25 C 71.81 111.22 76.79 120.09 80.75 122.25 C 84.72 124.40 89.82 135.16 94.00 133.00
C 102.79 115.22 119.98 99.96 138.00 92.00
C 140.43 88.09 128.78 82.12 126.75 78.25 C 124.73 74.37 115.65 69.32 113.75 65.25 C 111.85 61.18 100.75 56.40 101.00 52.00
C 84.04 64.61 68.06 80.12 55.00 97.00 Z"/>
</g>
<g fill="#EFB0D5" fill-opacity="1.00" stroke="None">
<path d="
M 208.00 82.00 
C 238.67 82.00 269.33 82.00 300.00 82.00
C 285.56 80.60 269.24 81.00 254.00 81.00
C 238.75 81.00 222.52 80.59 208.00 82.00 Z"/>
</g>
<g fill="#FEFEFE" fill-opacity="1.00" stroke="None">
<path d="
M 167.00 84.00 
C 157.10 85.45 147.12 87.97 138.00 92.00
C 119.98 99.96 102.79 115.22 94.00 133.00
C 88.93 143.25 85.91 154.70 84.00 166.00
C 82.00 177.81 82.66 189.79 82.00 202.00
C 81.61 209.24 81.00 216.47 81.00 224.00
C 83.48 249.62 82.00 277.59 82.00 304.00
C 82.00 318.56 81.64 333.02 84.00 347.00
C 90.94 388.03 122.49 422.86 165.00 428.00
C 178.55 429.64 192.02 430.00 206.00 430.00
C 236.67 430.00 267.33 430.00 298.00 430.00
C 304.00 430.00 310.00 430.00 316.00 430.00
C 323.87 430.00 331.22 429.62 339.00 429.00
C 350.83 428.06 364.27 424.96 375.00 420.00
C 387.64 414.15 402.83 403.03 411.00 391.00
C 417.04 382.11 422.44 370.49 425.00 360.00
C 428.03 347.56 430.00 334.16 430.00 321.00
C 430.00 315.33 430.00 309.67 430.00 304.00
C 430.00 271.00 430.00 238.00 430.00 205.00
C 430.00 200.33 430.00 195.67 430.00 191.00
C 430.00 161.40 422.67 132.85 401.75 111.25 C 380.84 89.65 352.04 83.11 323.00 82.00
C 315.36 81.71 307.65 82.00 300.00 82.00
C 269.33 82.00 238.67 82.00 208.00 82.00
C 203.00 82.00 198.00 82.00 193.00 82.00
C 184.26 82.00 175.47 82.76 167.00 84.00
M 291.00 113.00 
C 294.33 113.00 297.67 113.00 301.00 113.00
C 328.31 113.00 358.33 112.37 378.75 132.25 C 399.17 152.13 399.00 181.83 399.00 209.00
C 401.85 238.47 401.84 273.61 399.00 303.00
C 399.00 307.33 399.00 311.67 399.00 316.00
C 399.00 319.75 398.29 323.99 398.00 327.00
C 398.00 334.76 396.60 341.21 395.00 348.00
C 391.76 361.69 386.96 372.26 376.00 382.00
C 360.84 397.77 333.82 398.58 313.00 399.00
C 305.01 399.16 296.99 399.00 289.00 399.00
C 265.47 401.28 237.46 401.24 214.00 399.00
C 211.67 399.00 209.33 399.00 207.00 399.00
C 180.71 399.00 152.24 398.70 132.75 379.25 C 113.26 359.80 113.00 330.42 113.00 304.00
C 113.00 298.00 113.00 292.00 113.00 286.00
C 110.63 261.54 110.64 232.39 113.00 208.00
C 113.00 191.38 113.01 173.98 118.00 159.00
C 123.10 143.70 130.64 132.17 145.00 124.00
C 154.11 118.82 162.41 116.51 173.00 115.00
C 176.50 114.50 180.85 114.00 185.00 114.00
C 188.08 113.70 192.25 113.00 196.00 113.00
C 201.67 113.00 207.33 113.00 213.00 113.00
C 237.46 110.63 266.61 110.64 291.00 113.00 Z"/>
</g>
<g fill="#F63B0E" fill-opacity="0.99" stroke="None">
<path d="
M 37.00 122.00 
C 41.10 125.01 45.09 129.85 48.75 133.25 C 52.42 136.65 56.82 141.66 60.25 144.75 C 63.68 147.85 68.83 153.95 71.75 156.25 C 74.68 158.55 81.59 168.47 84.00 166.00
C 85.91 154.70 88.93 143.25 94.00 133.00
C 89.82 135.16 84.72 124.40 80.75 122.25 C 76.79 120.09 71.81 111.22 67.75 109.25 C 63.69 107.27 59.35 96.75 55.00 97.00
C 48.79 105.03 42.45 113.20 37.00 122.00 Z"/>
</g>
<g fill="#F4C4DC" fill-opacity="1.00" stroke="None">
<path d="
M 213.00 113.00 
C 214.00 113.00 215.00 113.00 216.00 113.00
C 228.67 113.00 241.33 113.00 254.00 113.00
C 266.33 113.00 278.67 113.00 291.00 113.00
C 266.61 110.64 237.46 110.63 213.00 113.00 Z"/>
</g>
<g fill="#F18CA7" fill-opacity="1.00" stroke="None">
<path d="
M 185.00 114.00 
C 188.75 114.00 192.99 113.29 196.00 113.00
C 192.25 113.00 188.08 113.70 185.00 114.00 Z"/>
</g>
<g fill="#DF0342" fill-opacity="1.00" stroke="None">
<path d="
M 185.00 114.00 
C 180.85 114.00 176.50 114.50 173.00 115.00
C 178.44 116.44 182.66 125.51 187.25 128.75 C 191.84 132.00 197.25 139.06 201.25 142.75 C 205.24 146.45 212.30 153.25 215.25 156.75 C 218.20 160.25 229.30 167.92 227.00 171.00
C 233.96 168.62 241.43 167.15 249.00 167.00
C 253.06 166.51 258.23 165.57 263.00 166.00
C 264.66 166.12 266.34 165.91 268.00 166.00
C 251.33 147.83 232.62 131.12 216.00 113.00
C 215.00 113.00 214.00 113.00 213.00 113.00
C 207.33 113.00 201.67 113.00 196.00 113.00
C 192.99 113.29 188.75 114.00 185.00 114.00 Z"/>
</g>
<g fill="#D5045F" fill-opacity="1.00" stroke="None">
<path d="
M 263.00 166.00 
C 263.03 166.00 263.00 167.00 263.00 167.00
C 302.05 167.00 340.37 203.85 345.00 242.00
C 349.21 248.53 358.30 252.66 362.75 259.25 C 367.20 265.84 376.74 270.55 380.75 277.25 C 384.76 283.95 396.48 288.17 399.00 295.00
C 399.00 282.67 399.00 270.33 399.00 258.00
C 396.76 251.92 386.56 248.10 382.75 242.25 C 378.95 236.40 371.41 231.81 366.75 226.25 C 362.10 220.68 355.81 215.68 350.75 210.25 C 345.70 204.81 340.02 199.62 334.75 194.25 C 329.48 188.88 323.62 183.02 318.25 177.75 C 312.88 172.48 307.70 166.81 302.25 161.75 C 296.80 156.70 291.85 150.41 286.25 145.75 C 280.64 141.10 276.19 133.55 270.25 129.75 C 264.31 125.95 260.13 115.26 254.00 113.00
C 241.33 113.00 228.67 113.00 216.00 113.00
C 232.62 131.12 251.33 147.83 268.00 166.00
C 266.34 165.91 264.66 166.12 263.00 166.00 Z"/>
</g>
<g fill="#CE0273" fill-opacity="1.00" stroke="None">
<path d="
M 399.00 258.00 
C 399.00 245.67 399.00 233.33 399.00 221.00
C 397.16 216.02 388.87 213.14 385.75 208.25 C 382.63 203.35 375.97 199.50 372.25 194.75 C 368.52 190.00 362.36 186.04 359.00 181.00
C 349.78 185.66 340.29 183.46 333.25 175.75 C 326.21 168.04 328.64 158.84 332.00 150.00
C 333.98 144.78 329.27 140.98 324.75 137.25 C 320.23 133.52 317.33 128.18 312.75 125.25 C 308.18 122.32 305.56 114.68 301.00 113.00
C 297.67 113.00 294.33 113.00 291.00 113.00
C 278.67 113.00 266.33 113.00 254.00 113.00
C 260.13 115.26 264.31 125.95 270.25 129.75 C 276.19 133.55 280.64 141.10 286.25 145.75 C 291.85 150.41 296.80 156.70 302.25 161.75 C 307.70 166.81 312.88 172.48 318.25 177.75 C 323.62 183.02 329.48 188.88 334.75 194.25 C 340.02 199.62 345.70 204.81 350.75 210.25 C 355.81 215.68 362.10 220.68 366.75 226.25 C 371.41 231.81 378.95 236.40 382.75 242.25 C 386.56 248.10 396.76 251.92 399.00 258.00 Z"/>
</g>
<g fill="#C60A8D" fill-opacity="1.00" stroke="None">
<path d="
M 332.00 150.00 
C 350.22 122.89 389.93 165.36 359.00 181.00
C 362.36 186.04 368.52 190.00 372.25 194.75 C 375.97 199.50 382.63 203.35 385.75 208.25 C 388.87 213.14 397.16 216.02 399.00 221.00
C 399.00 217.00 399.00 213.00 399.00 209.00
C 399.00 181.83 399.17 152.13 378.75 132.25 C 358.33 112.37 328.31 113.00 301.00 113.00
C 305.56 114.68 308.18 122.32 312.75 125.25 C 317.33 128.18 320.23 133.52 324.75 137.25 C 329.27 140.98 333.98 144.78 332.00 150.00 Z"/>
</g>
<g fill="#E80526" fill-opacity="1.00" stroke="None">
<path d="
M 145.00 124.00 
C 163.84 143.67 183.38 163.21 203.00 182.00
C 202.46 183.66 200.44 184.33 200.00 186.00
C 208.03 179.66 217.40 174.29 227.00 171.00
C 229.30 167.92 218.20 160.25 215.25 156.75 C 212.30 153.25 205.24 146.45 201.25 142.75 C 197.25 139.06 191.84 132.00 187.25 128.75 C 182.66 125.51 178.44 116.44 173.00 115.00
C 162.41 116.51 154.11 118.82 145.00 124.00 Z"/>
</g>
<g fill="#F85B12" fill-opacity="0.99" stroke="None">
<path d="
M 25.00 145.00 
C 31.07 150.96 38.79 157.24 44.25 163.75 C 49.70 170.26 58.69 175.98 63.25 182.75 C 67.80 189.53 80.11 194.55 82.00 202.00
C 82.66 189.79 82.00 177.81 84.00 166.00
C 81.59 168.47 74.68 158.55 71.75 156.25 C 68.83 153.95 63.68 147.85 60.25 144.75 C 56.82 141.66 52.42 136.65 48.75 133.25 C 45.09 129.85 41.10 125.01 37.00 122.00
C 32.40 129.43 28.82 137.28 25.00 145.00 Z"/>
</g>
<g fill="#F2130C" fill-opacity="1.00" stroke="None">
<path d="
M 118.00 159.00 
C 119.01 164.53 129.06 169.02 132.25 173.75 C 135.44 178.48 142.88 184.08 146.75 188.25 C 150.62 192.42 157.34 199.59 161.25 202.75 C 165.16 205.91 172.11 217.02 176.00 215.00
C 181.22 204.45 190.36 193.61 200.00 186.00
C 200.44 184.33 202.46 183.66 203.00 182.00
C 183.38 163.21 163.84 143.67 145.00 124.00
C 130.64 132.17 123.10 143.70 118.00 159.00 Z"/>
</g>
<g fill="#FEFDFE" fill-opacity="1.00" stroke="None">
<path d="
M 332.00 150.00 
C 328.64 158.84 326.21 168.04 333.25 175.75 C 340.29 183.46 349.78 185.66 359.00 181.00
C 389.93 165.36 350.22 122.89 332.00 150.00 Z"/>
</g>
<g fill="#F97214" fill-opacity="0.99" stroke="None">
<path d="
M 16.00 166.00 
C 17.12 172.34 28.23 176.42 31.75 182.25 C 35.27 188.07 44.23 192.97 48.25 198.75 C 52.26 204.54 60.68 208.75 64.25 214.75 C 67.82 220.75 78.75 224.89 81.00 231.00
C 81.00 228.67 81.00 226.33 81.00 224.00
C 81.00 216.47 81.61 209.24 82.00 202.00
C 80.11 194.55 67.80 189.53 63.25 182.75 C 58.69 175.98 49.70 170.26 44.25 163.75 C 38.79 157.24 31.07 150.96 25.00 145.00
C 21.68 151.72 18.66 158.79 16.00 166.00 Z"/>
</g>
<g fill="#F64110" fill-opacity="1.00" stroke="None">
<path d="
M 113.00 208.00 
C 113.00 209.33 113.00 210.67 113.00 212.00
C 114.64 216.85 123.25 220.00 126.25 224.75 C 129.24 229.50 135.49 233.23 139.25 237.75 C 143.01 242.28 148.10 246.33 152.25 250.75 C 156.39 255.18 161.42 260.11 166.00 264.00
C 166.00 263.00 166.00 262.00 166.00 261.00
C 164.51 245.62 169.43 228.30 176.00 215.00
C 172.11 217.02 165.16 205.91 161.25 202.75 C 157.34 199.59 150.62 192.42 146.75 188.25 C 142.88 184.08 135.44 178.48 132.25 173.75 C 129.06 169.02 119.01 164.53 118.00 159.00
C 113.01 173.98 113.00 191.38 113.00 208.00 Z"/>
</g>
<g fill="#FA8616" fill-opacity="0.99" stroke="None">
<path d="
M 10.00 185.00 
C 11.70 192.22 23.27 196.31 27.25 202.75 C 31.23 209.20 40.80 214.39 45.25 220.75 C 49.70 227.11 58.81 231.68 62.75 238.25 C 66.69 244.82 78.52 249.28 81.00 256.00
C 81.00 247.67 81.00 239.33 81.00 231.00
C 78.75 224.89 67.82 220.75 64.25 214.75 C 60.68 208.75 52.26 204.54 48.25 198.75 C 44.23 192.97 35.27 188.07 31.75 182.25 C 28.23 176.42 17.12 172.34 16.00 166.00
C 13.76 172.06 11.78 178.51 10.00 185.00 Z"/>
</g>
<g fill="#F3A5BE" fill-opacity="1.00" stroke="None">
<path d="
M 249.00 167.00 
C 253.66 166.91 258.34 167.00 263.00 167.00
C 263.00 167.00 263.03 166.00 263.00 166.00
C 258.23 165.57 253.06 166.51 249.00 167.00 Z"/>
</g>
<g fill="#FEFDFD" fill-opacity="1.00" stroke="None">
<path d="
M 227.00 171.00 
C 217.40 174.29 208.03 179.66 200.00 186.00
C 190.36 193.61 181.22 204.45 176.00 215.00
C 169.43 228.30 164.51 245.62 166.00 261.00
C 170.07 303.01 203.88 344.10 249.00 345.00
C 253.65 345.09 258.35 345.09 263.00 345.00
C 282.80 344.60 299.36 335.17 315.00 324.00
C 325.29 315.38 333.69 302.47 339.00 291.00
C 342.07 284.37 344.75 274.39 345.00 267.00
C 345.03 266.00 345.00 265.00 345.00 264.00
C 345.00 258.33 345.00 252.67 345.00 247.00
C 345.00 245.38 345.20 243.61 345.00 242.00
C 340.37 203.85 302.05 167.00 263.00 167.00
C 258.34 167.00 253.66 166.91 249.00 167.00
C 241.43 167.15 233.96 168.62 227.00 171.00
M 314.00 251.00 
C 314.85 263.43 312.08 272.72 307.00 283.00
C 289.96 317.46 241.97 324.38 214.75 297.25 C 187.54 270.11 194.59 222.02 229.00 205.00
C 239.47 199.82 248.34 197.14 261.00 198.00
C 288.67 199.88 312.12 223.32 314.00 251.00 Z"/>
</g>
<g fill="#FB9B19" fill-opacity="0.99" stroke="None">
<path d="
M 2.00 223.00 
C 4.00 228.75 14.16 232.52 17.75 238.25 C 21.35 243.98 28.91 248.20 33.25 253.75 C 37.59 259.30 44.82 264.17 49.25 269.75 C 53.68 275.33 60.79 279.41 64.75 285.25 C 68.71 291.08 78.02 295.02 81.00 301.00
C 79.74 286.25 81.00 270.81 81.00 256.00
C 78.52 249.28 66.69 244.82 62.75 238.25 C 58.81 231.68 49.70 227.11 45.25 220.75 C 40.80 214.39 31.23 209.20 27.25 202.75 C 23.27 196.31 11.70 192.22 10.00 185.00
C 6.59 197.40 3.62 209.63 2.00 223.00 Z"/>
</g>
<g fill="#C5018D" fill-opacity="0.99" stroke="None">
<path d="
M 430.00 191.00 
C 430.00 195.67 430.00 200.33 430.00 205.00
C 431.25 217.89 431.00 232.39 431.00 246.00
C 432.97 251.33 442.40 255.14 445.75 260.25 C 449.10 265.36 456.20 270.08 460.25 274.75 C 464.30 279.42 471.12 285.63 475.25 289.75 C 479.37 293.87 486.09 301.30 489.75 304.25 C 493.41 307.19 502.01 319.43 505.00 317.00
C 508.02 304.62 510.34 291.36 512.00 279.00
L 512.00 263.00
C 509.94 264.07 511.47 267.12 511.00 269.00
C 506.80 265.80 503.11 261.48 499.25 257.75 C 495.39 254.02 491.55 249.99 487.75 246.25 C 483.95 242.51 479.97 238.44 476.25 234.75 C 472.53 231.06 468.31 226.79 464.75 223.25 C 461.19 219.70 456.46 214.96 453.25 211.75 C 450.03 208.54 444.21 202.70 441.75 200.25 C 439.29 197.79 431.37 188.76 430.00 191.00 Z"/>
</g>
<g fill="#E80327" fill-opacity="1.00" stroke="None">
<path d="
M 229.00 205.00 
C 235.03 205.93 239.46 216.79 244.75 220.25 C 250.04 223.71 255.31 231.29 260.25 235.75 C 265.19 240.21 271.32 246.27 275.75 251.25 C 280.19 256.23 287.80 261.37 291.25 266.75 C 294.69 272.13 306.06 276.90 307.00 283.00
C 312.08 272.72 314.85 263.43 314.00 251.00
C 312.25 246.25 303.95 242.76 300.75 238.25 C 297.56 233.73 291.24 228.75 287.25 224.75 C 283.26 220.76 278.83 214.86 274.25 211.75 C 269.66 208.64 265.76 199.76 261.00 198.00
C 248.34 197.14 239.47 199.82 229.00 205.00 Z"/>
</g>
<g fill="#E10F3F" fill-opacity="1.00" stroke="None">
<path d="
M 314.00 251.00 
C 312.12 223.32 288.67 199.88 261.00 198.00
C 265.76 199.76 269.66 208.64 274.25 211.75 C 278.83 214.86 283.26 220.76 287.25 224.75 C 291.24 228.75 297.56 233.73 300.75 238.25 C 303.95 242.76 312.25 246.25 314.00 251.00 Z"/>
</g>
<g fill="#F3200D" fill-opacity="1.00" stroke="None">
<path d="
M 307.00 283.00 
C 306.06 276.90 294.69 272.13 291.25 266.75 C 287.80 261.37 280.19 256.23 275.75 251.25 C 271.32 246.27 265.19 240.21 260.25 235.75 C 255.31 231.29 250.04 223.71 244.75 220.25 C 239.46 216.79 235.03 205.93 229.00 205.00
C 194.59 222.02 187.54 270.11 214.75 297.25 C 241.97 324.38 289.96 317.46 307.00 283.00 Z"/>
</g>
<g fill="#F0B7DA" fill-opacity="1.00" stroke="None">
<path d="
M 430.00 304.00 
C 430.30 300.92 431.00 296.75 431.00 293.00
C 431.00 277.33 431.00 261.67 431.00 246.00
C 431.00 232.39 431.25 217.89 430.00 205.00
C 430.00 238.00 430.00 271.00 430.00 304.00 Z"/>
</g>
<g fill="#FDE1CC" fill-opacity="1.00" stroke="None">
<path d="
M 113.00 286.00 
C 113.00 281.33 113.00 276.67 113.00 272.00
C 113.00 263.00 113.00 254.00 113.00 245.00
C 113.00 234.00 113.00 223.00 113.00 212.00
C 113.00 210.67 113.00 209.33 113.00 208.00
C 110.64 232.39 110.63 261.54 113.00 286.00 Z"/>
</g>
<g fill="#F6CDE2" fill-opacity="1.00" stroke="None">
<path d="
M 399.00 221.00 
C 399.00 233.33 399.00 245.67 399.00 258.00
C 399.00 270.33 399.00 282.67 399.00 295.00
C 399.00 297.67 399.00 300.33 399.00 303.00
C 401.84 273.61 401.85 238.47 399.00 209.00
C 399.00 213.00 399.00 217.00 399.00 221.00 Z"/>
</g>
<g fill="#F86314" fill-opacity="1.00" stroke="None">
<path d="
M 113.00 245.00 
C 115.39 251.48 126.20 255.54 130.25 261.75 C 134.30 267.97 142.30 272.84 147.25 278.75 C 152.20 284.66 158.88 289.98 164.25 295.75 C 169.62 301.52 175.65 307.05 181.25 312.75 C 186.84 318.45 193.05 324.65 198.75 330.25 C 204.45 335.85 209.97 341.88 215.75 347.25 C 221.54 352.62 226.80 359.30 232.75 364.25 C 238.70 369.20 243.45 377.20 249.75 381.25 C 256.06 385.30 260.47 396.59 267.00 399.00
C 274.33 399.00 281.67 399.00 289.00 399.00
C 296.99 399.00 305.01 399.16 313.00 399.00
C 305.93 396.98 301.77 385.55 295.25 381.75 C 288.73 377.95 284.37 367.95 277.75 364.25 C 271.13 360.54 266.70 348.47 260.00 346.00
C 256.16 346.33 252.07 345.37 249.00 345.00
C 203.88 344.10 170.07 303.01 166.00 261.00
C 166.00 262.00 166.00 263.00 166.00 264.00
C 161.42 260.11 156.39 255.18 152.25 250.75 C 148.10 246.33 143.01 242.28 139.25 237.75 C 135.49 233.23 129.24 229.50 126.25 224.75 C 123.25 220.00 114.64 216.85 113.00 212.00
C 113.00 223.00 113.00 234.00 113.00 245.00 Z"/>
</g>
<g fill="#FCB21D" fill-opacity="1.00" stroke="None">
<path d="
M 0.00 233.00 
L 0.00 235.00
C 1.52 236.96 1.72 242.11 0.00 244.00
L 0.00 268.00
C 0.50 268.00 1.00 268.00 1.00 268.00
C 1.72 265.58 10.94 275.19 14.25 278.75 C 17.56 282.32 24.27 288.56 28.25 292.75 C 32.22 296.94 38.07 302.25 42.25 306.75 C 46.42 311.25 52.20 316.06 56.25 320.75 C 60.30 325.45 66.74 329.85 70.25 334.75 C 73.76 339.66 81.89 343.98 84.00 347.00
C 81.64 333.02 82.00 318.56 82.00 304.00
C 81.84 303.26 81.11 302.26 81.00 301.00
C 78.02 295.02 68.71 291.08 64.75 285.25 C 60.79 279.41 53.68 275.33 49.25 269.75 C 44.82 264.17 37.59 259.30 33.25 253.75 C 28.91 248.20 21.35 243.98 17.75 238.25 C 14.16 232.52 4.00 228.75 2.00 223.00
C 1.70 225.51 0.91 230.50 0.00 233.00 Z"/>
</g>
<g fill="#FEE4C5" fill-opacity="1.00" stroke="None">
<path d="
M 81.00 231.00 
C 81.00 239.33 81.00 247.67 81.00 256.00
C 81.00 270.81 79.74 286.25 81.00 301.00
C 81.11 302.26 81.84 303.26 82.00 304.00
C 82.00 277.59 83.48 249.62 81.00 224.00
C 81.00 226.33 81.00 228.67 81.00 231.00 Z"/>
</g>
<g fill="#FCB11C" fill-opacity="0.46" stroke="None">
<path d="
M 0.00 244.00 
C 1.72 242.11 1.52 236.96 0.00 235.00
L 0.00 244.00 Z"/>
</g>
<g fill="#BE00A2" fill-opacity="0.60" stroke="None">
<path d="
M 512.00 249.00 
L 512.00 236.00
C 510.29 239.20 510.42 245.73 512.00 249.00 Z"/>
</g>
<g fill="#DC014A" fill-opacity="1.00" stroke="None">
<path d="
M 345.00 247.00 
C 345.58 252.41 346.19 258.59 345.00 264.00
C 345.00 265.00 345.03 266.00 345.00 267.00
C 345.33 266.20 346.14 264.55 347.00 264.00
C 363.34 281.83 381.71 298.21 398.00 316.00
C 398.16 316.23 399.00 316.00 399.00 316.00
C 399.00 311.67 399.00 307.33 399.00 303.00
C 399.00 300.33 399.00 297.67 399.00 295.00
C 396.48 288.17 384.76 283.95 380.75 277.25 C 376.74 270.55 367.20 265.84 362.75 259.25 C 358.30 252.66 349.21 248.53 345.00 242.00
C 345.20 243.61 345.00 245.38 345.00 247.00 Z"/>
</g>
<g fill="#F97914" fill-opacity="1.00" stroke="None">
<path d="
M 113.00 272.00 
C 115.20 277.96 124.94 281.50 128.75 287.25 C 132.56 293.00 140.11 297.76 144.75 303.25 C 149.40 308.74 155.73 313.91 160.75 319.25 C 165.78 324.59 171.56 330.06 176.75 335.25 C 181.95 340.44 186.91 345.77 192.25 350.75 C 197.59 355.73 202.73 362.13 208.25 366.75 C 213.77 371.38 218.43 378.96 224.25 382.75 C 230.07 386.55 234.01 396.79 240.00 399.00
C 249.00 399.00 258.00 399.00 267.00 399.00
C 260.47 396.59 256.06 385.30 249.75 381.25 C 243.45 377.20 238.70 369.20 232.75 364.25 C 226.80 359.30 221.54 352.62 215.75 347.25 C 209.97 341.88 204.45 335.85 198.75 330.25 C 193.05 324.65 186.84 318.45 181.25 312.75 C 175.65 307.05 169.62 301.52 164.25 295.75 C 158.88 289.98 152.20 284.66 147.25 278.75 C 142.30 272.84 134.30 267.97 130.25 261.75 C 126.20 255.54 115.39 251.48 113.00 245.00
C 113.00 254.00 113.00 263.00 113.00 272.00 Z"/>
</g>
<g fill="#CD0074" fill-opacity="0.99" stroke="None">
<path d="
M 431.00 293.00 
C 432.61 297.37 440.46 300.51 443.25 304.75 C 446.04 308.99 451.77 312.89 455.25 316.75 C 458.72 320.62 464.05 325.86 467.75 329.25 C 471.46 332.63 476.06 338.91 479.75 341.25 C 483.45 343.59 488.87 354.13 493.00 353.00
C 497.81 341.32 501.93 329.58 505.00 317.00
C 502.01 319.43 493.41 307.19 489.75 304.25 C 486.09 301.30 479.37 293.87 475.25 289.75 C 471.12 285.63 464.30 279.42 460.25 274.75 C 456.20 270.08 449.10 265.36 445.75 260.25 C 442.40 255.14 432.97 251.33 431.00 246.00
C 431.00 261.67 431.00 277.33 431.00 293.00 Z"/>
</g>
<g fill="#F298B5" fill-opacity="1.00" stroke="None">
<path d="
M 345.00 264.00 
C 346.19 258.59 345.58 252.41 345.00 247.00
C 345.00 252.67 345.00 258.33 345.00 264.00 Z"/>
</g>
<g fill="#E20338" fill-opacity="1.00" stroke="None">
<path d="
M 345.00 267.00 
C 344.75 274.39 342.07 284.37 339.00 291.00
C 345.02 296.85 352.32 302.83 357.75 309.25 C 363.19 315.67 372.08 321.58 376.75 328.25 C 381.42 334.92 393.67 340.16 395.00 348.00
C 396.60 341.21 398.00 334.76 398.00 327.00
C 398.00 323.38 397.67 319.60 398.00 316.00
C 381.71 298.21 363.34 281.83 347.00 264.00
C 346.14 264.55 345.33 266.20 345.00 267.00 Z"/>
</g>
<g fill="#FECA20" fill-opacity="0.98" stroke="None">
<path d="
M 1.00 268.00 
C 1.28 271.09 1.60 275.71 0.00 278.00
L 0.00 279.00
C 8.14 398.05 114.03 503.85 233.00 512.00
L 234.00 512.00
C 236.41 510.35 240.84 510.87 244.00 511.00
C 237.69 508.47 233.80 498.27 227.75 494.25 C 221.71 490.23 216.98 482.59 211.25 477.75 C 205.51 472.92 200.34 466.46 194.75 461.25 C 189.17 456.04 183.74 450.15 178.25 444.75 C 172.76 439.36 166.93 433.77 162.00 428.00
C 163.00 428.00 164.00 428.00 165.00 428.00
C 122.49 422.86 90.94 388.03 84.00 347.00
C 81.89 343.98 73.76 339.66 70.25 334.75 C 66.74 329.85 60.30 325.45 56.25 320.75 C 52.20 316.06 46.42 311.25 42.25 306.75 C 38.07 302.25 32.22 296.94 28.25 292.75 C 24.27 288.56 17.56 282.32 14.25 278.75 C 10.94 275.19 1.72 265.58 1.00 268.00 Z"/>
</g>
<g fill="#FEBF1E" fill-opacity="0.42" stroke="None">
<path d="
M 0.00 278.00 
C 1.60 275.71 1.28 271.09 1.00 268.00
C 1.00 268.00 0.50 268.00 0.00 268.00
L 0.00 278.00 Z"/>
</g>
<g fill="#FA8D17" fill-opacity="1.00" stroke="None">
<path d="
M 113.00 286.00 
C 113.00 292.00 113.00 298.00 113.00 304.00
C 114.89 310.24 124.22 314.20 128.25 319.75 C 132.28 325.30 139.53 330.47 144.25 335.75 C 148.97 341.03 154.65 346.25 159.75 351.25 C 164.86 356.25 170.39 362.67 175.75 367.25 C 181.12 371.83 185.53 379.11 191.25 382.75 C 196.97 386.40 201.11 396.95 207.00 399.00
C 209.33 399.00 211.67 399.00 214.00 399.00
C 222.67 399.00 231.33 399.00 240.00 399.00
C 234.01 396.79 230.07 386.55 224.25 382.75 C 218.43 378.96 213.77 371.38 208.25 366.75 C 202.73 362.13 197.59 355.73 192.25 350.75 C 186.91 345.77 181.95 340.44 176.75 335.25 C 171.56 330.06 165.78 324.59 160.75 319.25 C 155.73 313.91 149.40 308.74 144.75 303.25 C 140.11 297.76 132.56 293.00 128.75 287.25 C 124.94 281.50 115.20 277.96 113.00 272.00
C 113.00 276.67 113.00 281.33 113.00 286.00 Z"/>
</g>
<g fill="#000000" fill-opacity="0.00" stroke="None">
<path d="
M 0.00 512.00 
L 233.00 512.00
C 114.03 503.85 8.14 398.05 0.00 279.00
L 0.00 512.00 Z"/>
</g>
<g fill="#000000" fill-opacity="0.00" stroke="None">
<path d="
M 505.00 317.00 
C 501.93 329.58 497.81 341.32 493.00 353.00
C 490.12 360.01 487.55 367.06 484.00 374.00
C 479.32 383.15 473.57 391.62 468.00 400.00
C 462.17 408.76 455.94 416.88 449.00 425.00
C 437.98 437.89 424.87 449.14 412.00 459.00
C 403.55 465.48 395.30 471.60 386.00 477.00
C 379.87 480.56 373.43 483.82 367.00 487.00
C 361.87 489.54 356.45 491.78 351.00 494.00
C 343.95 496.87 336.53 499.68 329.00 502.00
C 320.07 504.75 311.25 506.25 302.00 508.00
C 297.54 508.84 291.87 510.54 287.00 511.00
C 284.45 511.24 280.72 510.05 279.00 512.00
L 512.00 512.00
L 512.00 279.00
C 510.34 291.36 508.02 304.62 505.00 317.00 Z"/>
</g>
<g fill="#EC051D" fill-opacity="1.00" stroke="None">
<path d="
M 315.00 324.00 
C 317.25 322.39 319.59 320.35 321.00 318.00
C 342.08 335.26 360.45 357.61 381.00 376.00
C 379.89 378.41 377.04 379.62 376.00 382.00
C 386.96 372.26 391.76 361.69 395.00 348.00
C 393.67 340.16 381.42 334.92 376.75 328.25 C 372.08 321.58 363.19 315.67 357.75 309.25 C 352.32 302.83 345.02 296.85 339.00 291.00
C 333.69 302.47 325.29 315.38 315.00 324.00 Z"/>
</g>
<g fill="#D5025F" fill-opacity="0.99" stroke="None">
<path d="
M 430.00 304.00 
C 430.00 309.67 430.00 315.33 430.00 321.00
C 432.49 327.76 443.48 331.77 447.75 338.25 C 452.02 344.72 460.61 350.06 465.75 356.25 C 470.90 362.44 478.29 368.42 484.00 374.00
C 487.55 367.06 490.12 360.01 493.00 353.00
C 488.87 354.13 483.45 343.59 479.75 341.25 C 476.06 338.91 471.46 332.63 467.75 329.25 C 464.05 325.86 458.72 320.62 455.25 316.75 C 451.77 312.89 446.04 308.99 443.25 304.75 C 440.46 300.51 432.61 297.37 431.00 293.00
C 431.00 296.75 430.30 300.92 430.00 304.00 Z"/>
</g>
<g fill="#FBA41E" fill-opacity="1.00" stroke="None">
<path d="
M 207.00 399.00 
C 201.11 396.95 196.97 386.40 191.25 382.75 C 185.53 379.11 181.12 371.83 175.75 367.25 C 170.39 362.67 164.86 356.25 159.75 351.25 C 154.65 346.25 148.97 341.03 144.25 335.75 C 139.53 330.47 132.28 325.30 128.25 319.75 C 124.22 314.20 114.89 310.24 113.00 304.00
C 113.00 330.42 113.26 359.80 132.75 379.25 C 152.24 398.70 180.71 399.00 207.00 399.00 Z"/>
</g>
<g fill="#F18DA8" fill-opacity="1.00" stroke="None">
<path d="
M 398.00 327.00 
C 398.29 323.99 399.00 319.75 399.00 316.00
C 399.00 316.00 398.16 316.23 398.00 316.00
C 397.67 319.60 398.00 323.38 398.00 327.00 Z"/>
</g>
<g fill="#F52C0C" fill-opacity="1.00" stroke="None">
<path d="
M 315.00 324.00 
C 299.36 335.17 282.80 344.60 263.00 345.00
C 262.28 345.15 261.24 345.89 260.00 346.00
C 266.70 348.47 271.13 360.54 277.75 364.25 C 284.37 367.95 288.73 377.95 295.25 381.75 C 301.77 385.55 305.93 396.98 313.00 399.00
C 333.82 398.58 360.84 397.77 376.00 382.00
C 377.04 379.62 379.89 378.41 381.00 376.00
C 360.45 357.61 342.08 335.26 321.00 318.00
C 319.59 320.35 317.25 322.39 315.00 324.00 Z"/>
</g>
<g fill="#DD0349" fill-opacity="0.99" stroke="None">
<path d="
M 425.00 360.00 
C 427.95 357.61 432.77 366.30 435.75 368.25 C 438.73 370.20 443.00 376.51 446.25 378.75 C 449.49 380.99 453.41 387.55 456.75 389.25 C 460.09 390.94 464.46 400.41 468.00 400.00
C 473.57 391.62 479.32 383.15 484.00 374.00
C 478.29 368.42 470.90 362.44 465.75 356.25 C 460.61 350.06 452.02 344.72 447.75 338.25 C 443.48 331.77 432.49 327.76 430.00 321.00
C 430.00 334.16 428.03 347.56 425.00 360.00 Z"/>
</g>
<g fill="#FCC0A9" fill-opacity="1.00" stroke="None">
<path d="
M 260.00 346.00 
C 261.24 345.89 262.28 345.15 263.00 345.00
C 258.35 345.09 253.65 345.09 249.00 345.00
C 252.07 345.37 256.16 346.33 260.00 346.00 Z"/>
</g>
<g fill="#E70329" fill-opacity="0.99" stroke="None">
<path d="
M 425.00 360.00 
C 422.44 370.49 417.04 382.11 411.00 391.00
C 415.32 390.75 419.17 400.70 423.25 402.75 C 427.32 404.80 431.62 412.80 435.75 415.25 C 439.88 417.70 443.87 427.33 449.00 425.00
C 455.94 416.88 462.17 408.76 468.00 400.00
C 464.46 400.41 460.09 390.94 456.75 389.25 C 453.41 387.55 449.49 380.99 446.25 378.75 C 443.00 376.51 438.73 370.20 435.75 368.25 C 432.77 366.30 427.95 357.61 425.00 360.00 Z"/>
</g>
<g fill="#F3150B" fill-opacity="0.99" stroke="None">
<path d="
M 375.00 420.00 
C 373.93 424.60 384.88 429.18 386.75 433.25 C 388.62 437.31 397.40 441.57 399.25 445.75 C 401.10 449.93 412.15 454.50 412.00 459.00
C 424.87 449.14 437.98 437.89 449.00 425.00
C 443.87 427.33 439.88 417.70 435.75 415.25 C 431.62 412.80 427.32 404.80 423.25 402.75 C 419.17 400.70 415.32 390.75 411.00 391.00
C 402.83 403.03 387.64 414.15 375.00 420.00 Z"/>
</g>
<g fill="#FDE1CB" fill-opacity="1.00" stroke="None">
<path d="
M 289.00 399.00 
C 281.67 399.00 274.33 399.00 267.00 399.00
C 258.00 399.00 249.00 399.00 240.00 399.00
C 231.33 399.00 222.67 399.00 214.00 399.00
C 237.46 401.24 265.47 401.28 289.00 399.00 Z"/>
</g>
<g fill="#F6400F" fill-opacity="0.99" stroke="None">
<path d="
M 339.00 429.00 
C 344.95 431.20 348.50 440.97 354.25 444.75 C 359.99 448.53 364.76 456.18 370.25 460.75 C 375.74 465.32 381.11 471.88 386.00 477.00
C 395.30 471.60 403.55 465.48 412.00 459.00
C 412.15 454.50 401.10 449.93 399.25 445.75 C 397.40 441.57 388.62 437.31 386.75 433.25 C 384.88 429.18 373.93 424.60 375.00 420.00
C 364.27 424.96 350.83 428.06 339.00 429.00 Z"/>
</g>
<g fill="#FDB31D" fill-opacity="1.00" stroke="None">
<path d="
M 244.00 511.00 
C 245.58 511.06 248.21 510.29 249.00 512.00
L 279.00 512.00
C 280.72 510.05 284.45 511.24 287.00 511.00
C 282.25 503.65 274.78 497.13 268.25 490.75 C 261.72 484.38 255.05 476.74 248.25 470.75 C 241.45 464.76 235.98 456.42 228.75 451.25 C 221.52 446.08 216.58 434.77 209.00 431.00
C 207.66 430.88 206.79 430.17 206.00 430.00
C 192.02 430.00 178.55 429.64 165.00 428.00
C 164.00 428.00 163.00 428.00 162.00 428.00
C 166.93 433.77 172.76 439.36 178.25 444.75 C 183.74 450.15 189.17 456.04 194.75 461.25 C 200.34 466.46 205.51 472.92 211.25 477.75 C 216.98 482.59 221.71 490.23 227.75 494.25 C 233.80 498.27 237.69 508.47 244.00 511.00 Z"/>
</g>
<g fill="#F85C12" fill-opacity="0.99" stroke="None">
<path d="
M 316.00 430.00 
C 315.04 430.17 313.53 430.91 312.00 431.00
C 317.17 432.91 320.22 441.44 325.25 444.75 C 330.28 448.07 334.44 454.69 339.25 458.75 C 344.06 462.81 348.57 468.36 353.25 472.75 C 357.93 477.15 362.89 482.18 367.00 487.00
C 373.43 483.82 379.87 480.56 386.00 477.00
C 381.11 471.88 375.74 465.32 370.25 460.75 C 364.76 456.18 359.99 448.53 354.25 444.75 C 348.50 440.97 344.95 431.20 339.00 429.00
C 331.22 429.62 323.87 430.00 316.00 430.00 Z"/>
</g>
<g fill="#FDE1C1" fill-opacity="1.00" stroke="None">
<path d="
M 209.00 431.00 
C 214.90 431.51 221.07 431.00 227.00 431.00
C 238.00 431.00 249.00 431.00 260.00 431.00
C 269.67 431.00 279.33 431.00 289.00 431.00
C 292.00 431.00 295.00 431.00 298.00 431.00
C 297.96 431.00 298.00 430.00 298.00 430.00
C 267.33 430.00 236.67 430.00 206.00 430.00
C 206.79 430.17 207.66 430.88 209.00 431.00 Z"/>
</g>
<g fill="#FCAF81" fill-opacity="1.00" stroke="None">
<path d="
M 298.00 431.00 
C 302.64 431.00 307.37 431.27 312.00 431.00
C 313.53 430.91 315.04 430.17 316.00 430.00
C 310.00 430.00 304.00 430.00 298.00 430.00
C 298.00 430.00 297.96 431.00 298.00 431.00 Z"/>
</g>
<g fill="#FCA41A" fill-opacity="0.99" stroke="None">
<path d="
M 287.00 511.00 
C 291.87 510.54 297.54 508.84 302.00 508.00
C 299.50 502.88 293.60 498.14 288.75 493.25 C 283.91 488.36 278.35 482.55 273.25 477.75 C 268.15 472.95 263.06 466.71 257.75 462.25 C 252.44 457.78 247.87 450.42 242.25 446.75 C 236.63 443.09 232.78 433.13 227.00 431.00
C 221.07 431.00 214.90 431.51 209.00 431.00
C 216.58 434.77 221.52 446.08 228.75 451.25 C 235.98 456.42 241.45 464.76 248.25 470.75 C 255.05 476.74 261.72 484.38 268.25 490.75 C 274.78 497.13 282.25 503.65 287.00 511.00 Z"/>
</g>
<g fill="#FB9518" fill-opacity="0.99" stroke="None">
<path d="
M 302.00 508.00 
C 311.25 506.25 320.07 504.75 329.00 502.00
C 324.99 495.42 318.00 489.33 312.25 483.75 C 306.49 478.17 300.75 471.37 294.75 466.25 C 288.75 461.12 283.60 452.94 277.25 448.75 C 270.90 444.56 266.59 433.43 260.00 431.00
C 249.00 431.00 238.00 431.00 227.00 431.00
C 232.78 433.13 236.63 443.09 242.25 446.75 C 247.87 450.42 252.44 457.78 257.75 462.25 C 263.06 466.71 268.15 472.95 273.25 477.75 C 278.35 482.55 283.91 488.36 288.75 493.25 C 293.60 498.14 299.50 502.88 302.00 508.00 Z"/>
</g>
<g fill="#FA8215" fill-opacity="0.99" stroke="None">
<path d="
M 329.00 502.00 
C 336.53 499.68 343.95 496.87 351.00 494.00
C 346.28 488.67 341.00 483.11 335.75 478.25 C 330.51 473.39 325.66 467.24 320.25 462.75 C 314.83 458.26 310.50 450.92 304.75 447.25 C 299.00 443.58 294.92 433.18 289.00 431.00
C 279.33 431.00 269.67 431.00 260.00 431.00
C 266.59 433.43 270.90 444.56 277.25 448.75 C 283.60 452.94 288.75 461.12 294.75 466.25 C 300.75 471.37 306.49 478.17 312.25 483.75 C 318.00 489.33 324.99 495.42 329.00 502.00 Z"/>
</g>
<g fill="#F96F13" fill-opacity="0.99" stroke="None">
<path d="
M 351.00 494.00 
C 356.45 491.78 361.87 489.54 367.00 487.00
C 362.89 482.18 357.93 477.15 353.25 472.75 C 348.57 468.36 344.06 462.81 339.25 458.75 C 334.44 454.69 330.28 448.07 325.25 444.75 C 320.22 441.44 317.17 432.91 312.00 431.00
C 307.37 431.27 302.64 431.00 298.00 431.00
C 295.00 431.00 292.00 431.00 289.00 431.00
C 294.92 433.18 299.00 443.58 304.75 447.25 C 310.50 450.92 314.83 458.26 320.25 462.75 C 325.66 467.24 330.51 473.39 335.75 478.25 C 341.00 483.11 346.28 488.67 351.00 494.00 Z"/>
</g>
<g fill="#FEBE1E" fill-opacity="0.54" stroke="None">
<path d="
M 234.00 512.00 
L 249.00 512.00
C 248.21 510.29 245.58 511.06 244.00 511.00
C 240.84 510.87 236.41 510.35 234.00 512.00 Z"/>
</g>
</svg>