<?xml version="1.0" standalone="no"?>
<!DOCTYPE svg PUBLIC "-//W3C//DTD SVG 20010904//EN"
 "http://www.w3.org/TR/2001/REC-SVG-20010904/DTD/svg10.dtd">
<svg version="1.0" xmlns="http://www.w3.org/2000/svg"
 width="512.000000pt" height="512.000000pt" viewBox="0 0 512.000000 512.000000"
 preserveAspectRatio="xMidYMid meet">
<circle cx="256" cy="256" r="256" fill="white"/>
<g transform="translate(0.000000,512.000000) scale(0.100000,-0.100000)"
fill="#1900ffff" stroke="none">
<path d="M1450 4494 c-597 -344 -1093 -635 -1102 -646 -17 -19 -18 -95 -18
-1284 0 -901 3 -1270 11 -1287 8 -18 297 -189 1081 -643 589 -339 1087 -622
1108 -628 30 -7 47 -6 77 6 36 14 1918 1095 2079 1194 50 30 77 54 88 78 14
30 16 98 16 581 l0 547 -29 29 c-57 57 -149 28 -165 -52 -3 -18 -6 -95 -6
-173 l-1 -141 -431 -237 -431 -236 -32 24 c-44 34 -109 54 -171 54 -163 0
-294 -129 -294 -290 0 -95 23 -155 84 -216 61 -60 121 -84 215 -84 158 0 291
132 291 288 l0 48 383 211 382 210 3 -230 c2 -177 -1 -234 -10 -242 -20 -18
-1907 -1105 -1918 -1105 -7 0 -9 225 -8 621 l3 621 390 203 c215 111 403 215
419 231 50 49 56 78 56 263 l0 169 118 61 119 60 34 -23 c57 -38 101 -51 169
-51 264 1 394 321 207 508 -58 58 -117 82 -207 82 -165 0 -284 -112 -297 -279
l-6 -64 -128 -66 c-137 -71 -181 -110 -198 -173 -6 -21 -11 -109 -11 -195 l0
-156 -329 -171 c-181 -94 -331 -171 -335 -171 -3 0 -6 197 -6 438 l0 437 472
245 c260 135 695 361 968 502 l495 257 5 -183 c5 -188 8 -199 50 -233 8 -7 32
-13 53 -13 29 0 45 7 68 29 l29 29 0 279 c0 276 0 279 -24 313 -18 27 -100 79
-377 239 -1525 881 -1805 1041 -1829 1041 -16 0 -441 -240 -1110 -626z m2075
-146 c526 -303 952 -555 948 -559 -5 -5 -138 -75 -296 -157 l-288 -149 -247
140 c-136 77 -303 172 -372 212 l-125 71 -6 69 c-14 172 -131 285 -295 285
-171 0 -296 -127 -295 -300 0 -154 116 -277 271 -288 74 -5 125 7 181 43 l36
23 317 -180 c175 -99 314 -184 309 -189 -8 -8 -800 -422 -1005 -525 l-107 -53
-948 495 c-521 272 -952 499 -956 503 -4 4 100 70 232 145 l240 138 216 -112
215 -112 0 -42 c0 -102 67 -204 167 -253 113 -55 263 -27 342 63 74 84 100
202 67 302 -62 186 -307 261 -458 141 l-38 -30 -150 78 c-82 43 -150 80 -150
83 0 7 1213 708 1227 709 7 1 442 -247 968 -551z m-612 -319 c78 -83 -32 -206
-128 -143 -59 39 -49 140 17 169 43 18 76 10 111 -26z m-1002 -138 c75 -76 -4
-201 -102 -161 -40 17 -61 50 -61 97 0 29 7 43 31 65 43 39 92 38 132 -1z
m-511 -724 c432 -225 845 -441 918 -479 l132 -70 0 -314 0 -315 -192 100
c-106 56 -343 179 -525 273 l-333 173 0 46 c0 25 -8 68 -17 95 -23 67 -110
154 -177 177 -149 51 -308 -18 -373 -160 -21 -46 -25 -65 -21 -131 4 -91 25
-139 83 -197 53 -54 107 -78 182 -83 84 -6 120 2 185 41 l55 34 566 -296 567
-296 0 -747 0 -747 -222 129 c-123 70 -554 319 -958 552 l-735 425 -3 221 -2
221 147 -77 c82 -42 295 -153 474 -247 l327 -170 4 -60 c17 -198 215 -325 400
-255 76 28 122 71 159 145 61 125 35 264 -67 354 -56 49 -118 71 -203 71 -65
0 -127 -22 -186 -64 -18 -13 -60 7 -537 256 l-518 271 0 789 0 788 43 -21 c23
-12 395 -206 827 -432z m2603 -358 c13 -6 31 -23 40 -39 26 -44 21 -78 -17
-116 -38 -38 -72 -43 -116 -17 -47 28 -63 84 -36 132 25 45 81 62 129 40z
m-2832 -168 c77 -77 -6 -199 -106 -157 -67 28 -79 114 -23 161 42 35 91 34
129 -4z m2420 -1190 c49 -49 35 -126 -28 -156 -49 -24 -101 -4 -126 47 -49
100 75 187 154 109z m-1776 -75 c100 -42 70 -186 -40 -186 -50 0 -95 44 -95
93 0 38 30 84 64 97 29 12 32 12 71 -4z"/>
<path d="M4638 2915 c-82 -46 -57 -169 37 -182 46 -6 89 21 106 65 12 30 -3
82 -30 106 -26 24 -81 29 -113 11z"/>
</g>
</svg>
